<svg width="431" height="215" viewBox="0 0 431 215" fill="none" xmlns="http://www.w3.org/2000/svg">
<g clip-path="url(#clip0)">
<path d="M58.2185 45.7622C60.3191 45.4668 62.0011 45.6934 63.2643 46.4421C64.5844 47.1828 65.3562 48.348 65.5798 49.9377C65.6916 50.7325 65.6858 51.5149 65.5625 52.285L64.4622 60.5164C64.2804 62.1052 63.836 63.2678 63.129 64.0041C62.4708 64.6757 61.432 65.1113 60.0126 65.3109C58.65 65.5025 57.5314 65.3704 56.6567 64.9144C55.8308 64.3937 55.1233 63.48 54.5343 62.1733L52.4889 57.5107C52.0613 56.5287 51.6249 55.8953 51.1795 55.6106C50.7342 55.3258 49.9438 55.2633 48.8083 55.423L39.8663 56.6807L37.7403 72.4384L41.4874 71.9114C41.8848 71.8555 42.3842 71.4957 42.9857 70.8322L45.5218 67.8701C46.2696 67.0122 46.9319 66.369 47.5085 65.9406C48.0851 65.5121 48.8276 65.234 49.736 65.1062C50.7579 64.9625 51.6211 65.1305 52.3254 65.6104C53.0786 66.0256 53.5151 66.659 53.6348 67.5106C53.6668 67.7377 53.6579 68.0863 53.6083 68.5565L51.7815 80.8851C51.6166 82.182 51.1522 83.2027 50.3884 83.947C49.6734 84.6265 48.8333 85.0341 47.8682 85.1699C46.2785 85.3935 44.9704 84.7379 43.944 83.2033L42.077 80.4262C41.5598 79.6305 40.8754 79.2925 40.0238 79.4123L36.7025 79.8794L34.2173 98.6404L41.7115 97.5864C42.7902 97.4347 43.699 97.1042 44.438 96.595C45.2257 96.021 46.0263 95.1268 46.8398 93.9123L51.1589 87.573C51.9316 86.48 52.6874 85.679 53.4263 85.1698C54.2141 84.5958 55.2041 84.225 56.3963 84.0573C57.6454 83.8816 58.7072 84.0217 59.5819 84.4777C60.4566 84.9336 60.9738 85.7294 61.1335 86.8648C61.1974 87.319 61.1881 87.8704 61.1056 88.5189L59.8457 97.4676C59.5246 99.7128 58.8278 101.345 57.7553 102.364C56.6828 103.384 55.0111 104.053 52.7401 104.372L12.1179 110.086C10.9257 110.254 9.98934 110.183 9.30893 109.873C8.57174 109.571 8.15523 109.08 8.05941 108.399C8.01149 108.058 8.04475 107.677 8.15918 107.256C8.29844 106.599 8.5996 106.065 9.06266 105.652C9.52572 105.24 9.81003 104.997 9.9156 104.924C10.7441 104.229 11.4024 103.557 11.8902 102.91C12.3702 102.205 12.713 101.144 12.9188 99.7254L18.2312 61.5474C18.3545 60.7774 18.3723 60.0801 18.2844 59.4556C18.1886 58.7743 17.9952 58.2225 17.7042 57.8003C17.47 57.37 17.1183 56.9274 16.649 56.4723C16.0342 55.8061 15.6949 55.2459 15.631 54.7917C15.607 54.6214 15.6199 54.3011 15.6696 53.831C15.7928 53.0609 16.232 52.4781 16.9869 52.0824C17.7338 51.63 18.8737 51.296 20.4066 51.0804L58.2185 45.7622ZM93.2551 51.9508C97.9674 51.288 102.087 51.1429 105.613 51.5154C109.196 51.8799 112.004 52.7008 114.036 53.9782C116.125 55.2476 117.306 56.8475 117.577 58.7778C117.857 60.7649 117.289 62.4948 115.875 63.9674C114.518 65.4321 112.448 66.36 109.666 66.7513C106.828 67.1506 104.315 66.7802 102.128 65.6404C99.9983 64.4925 98.7816 62.8398 98.4782 60.6824C98.3744 59.9443 98.3881 59.2187 98.5194 58.5055C97.4575 58.3653 96.5291 58.3511 95.7343 58.4629C94.3149 58.6626 93.1706 59.1709 92.3012 59.9879C91.4887 60.797 91.1986 61.8221 91.4311 63.0631C91.6387 64.5393 92.5524 65.6845 94.1723 66.4988C95.7922 67.3131 98.3564 68.2552 101.865 69.325C104.879 70.1747 107.371 71.0112 109.339 71.8344C111.357 72.5928 113.101 73.6791 114.574 75.0931C116.104 76.4991 117.02 78.2808 117.323 80.4383C117.387 80.8925 117.393 81.7601 117.342 83.041C116.969 86.9727 114.865 90.3371 111.032 93.1342C107.199 95.9313 101.905 97.805 95.1484 98.7553C87.5406 99.8253 81.3504 99.6538 76.5777 98.2407C71.8618 96.8197 69.2524 94.3207 68.7493 90.744C68.4059 88.3026 68.8845 86.3537 70.1849 84.897C71.4854 83.4404 73.3563 82.5403 75.7976 82.197C78.6363 81.7977 81.173 82.3384 83.4077 83.8189C85.6991 85.2914 87.0364 87.3903 87.4197 90.1155C87.5235 90.8535 87.5462 91.632 87.4876 92.4508C88.8981 92.5998 90.2279 92.5864 91.477 92.4108C92.9531 92.2031 94.1178 91.634 94.9712 90.7035C95.8246 89.7729 96.1515 88.5979 95.9518 87.1785C95.7114 85.8807 94.9028 84.8654 93.526 84.1327C92.1412 83.3432 89.9944 82.4872 87.0855 81.5647C84.363 80.7317 82.1066 79.9201 80.3164 79.1297C78.5183 78.2826 76.9112 77.148 75.4954 75.726C74.1363 74.296 73.3051 72.5023 73.0016 70.3449C72.3468 65.6894 73.7581 61.7275 77.2355 58.4594C80.7617 55.1264 86.1016 52.9569 93.2551 51.9508ZM150.641 44.2269C154.104 43.7398 157.214 43.8236 159.969 44.4782C162.717 45.0761 164.924 46.1552 166.591 47.7156C168.306 49.2112 169.312 51.0093 169.607 53.11C169.927 55.381 169.395 57.3663 168.013 59.066C166.688 60.7578 164.691 61.7913 162.023 62.1666C159.298 62.5499 157.073 62.168 155.348 61.0211C153.616 59.8173 152.582 58.0231 152.246 55.6386C152.087 54.5031 152.089 53.2869 152.254 51.9899C149.957 52.9498 148.004 54.4983 146.394 56.6354C144.833 58.7077 143.952 61.2923 143.75 64.3892C143.649 66.1403 143.694 67.6972 143.886 69.0598C144.317 72.1256 145.496 74.3336 147.423 75.6837C149.35 77.0339 151.903 77.4854 155.082 77.0382C156.899 76.7827 158.436 76.3927 159.694 75.8684C160.944 75.2873 162.207 74.5887 163.481 73.7726C164.537 73.0451 165.32 72.6455 165.831 72.5736C166.172 72.5257 166.411 72.5789 166.549 72.7332C166.678 72.8308 166.775 73.1067 166.839 73.5609C167.191 75.6536 166.622 77.9916 165.133 80.5748C163.692 83.0934 161.494 85.3711 158.538 87.4079C155.631 89.38 152.219 90.6416 148.302 91.1925C144.214 91.7675 140.476 91.5404 137.09 90.5115C133.751 89.4178 131.007 87.6037 128.855 85.0693C126.753 82.4701 125.438 79.297 124.911 75.5498C124.663 73.7898 124.615 71.7992 124.766 69.5779C125.309 62.3222 127.94 56.5387 132.66 52.2272C137.437 47.9078 143.431 45.241 150.641 44.2269ZM202.863 37.3163C210.584 36.2303 216.481 36.9931 220.554 39.6046C224.684 42.2082 227.104 46.0364 227.815 51.0894C228.054 52.7926 228.094 54.7265 227.936 56.891C227.512 61.6983 226.071 66.0695 223.614 70.0048C221.149 73.8832 217.895 77.0911 213.851 79.6283C209.857 82.1007 205.361 83.6883 200.365 84.391C192.473 85.501 186.406 84.7621 182.163 82.1745C177.969 79.5222 175.504 75.5844 174.77 70.3611C174.522 68.6011 174.474 66.6105 174.624 64.3891C175.08 59.809 176.573 55.6041 179.103 51.7744C181.682 47.88 185.025 44.6885 189.133 42.2001C193.29 39.6469 197.867 38.019 202.863 37.3163ZM203.674 44.9316C202.481 45.0993 201.356 46.3577 200.296 48.7068C199.286 50.9911 198.288 55.2133 197.301 61.3734C196.315 67.5334 195.99 71.8057 196.325 74.1903C196.501 75.4393 196.819 76.263 197.28 76.6613C197.734 77.0028 198.301 77.1257 198.982 77.0298C200.191 76.9757 201.268 75.7821 202.213 73.449C203.216 71.1079 204.243 66.679 205.295 60.1623C206.28 54.4076 206.597 50.2812 206.246 47.7832C206.078 46.5909 205.764 45.7956 205.302 45.3973C204.898 44.991 204.355 44.8358 203.674 44.9316ZM252.742 12.0632C256.035 11.6001 258.536 11.8852 260.244 12.9186C262.009 13.9441 263.044 15.5355 263.347 17.693C263.523 18.942 263.496 20.1906 263.266 21.4388L256.004 66.7518C255.93 67.4571 255.929 68.0652 256.001 68.5761C256.104 69.3142 256.33 69.8904 256.678 70.3047C257.018 70.6621 257.471 71.0037 258.038 71.3292C258.491 71.6708 258.823 71.9715 259.033 72.2314C259.235 72.4345 259.308 72.7428 259.25 73.1562C259.07 73.9342 258.578 74.5534 257.774 75.0138C256.971 75.4743 255.689 75.8282 253.929 76.0758L234.512 78.8067C233.036 79.0143 231.925 78.939 231.18 78.5806C230.427 78.1654 230.108 77.5445 230.223 76.7177C230.354 76.0044 230.867 75.3245 231.76 74.6777C232.548 74.1038 233.182 73.4646 233.662 72.7602C234.141 72.0559 234.484 70.9944 234.69 69.5759L241.658 25.2596C241.756 24.7246 241.781 24.2869 241.734 23.9462C241.646 23.3217 241.404 22.8347 241.007 22.4852C240.667 22.1277 240.214 21.7861 239.647 21.4606C239.015 21.0862 238.534 20.7487 238.202 20.448C237.927 20.1393 237.835 19.6891 237.925 19.0974C238.082 17.7437 239.711 16.3566 242.811 14.9363C245.912 13.516 249.222 12.5583 252.742 12.0632ZM320.126 54.7805C320.045 55.0235 320.036 55.3722 320.1 55.8264C320.156 56.2238 320.285 56.5241 320.487 56.7272C320.746 56.9224 321.046 56.996 321.386 56.9481C322.068 56.8522 322.596 56.4885 322.97 55.8569C323.393 55.1605 323.69 54.8003 323.86 54.7764C324.144 54.7365 324.399 54.9032 324.625 55.2767C324.843 55.5934 324.989 56.0072 325.06 56.5182C325.349 58.1567 325.037 59.8506 324.125 61.6C323.205 63.2926 321.71 64.8056 319.639 66.139C317.618 67.4076 315.074 68.2575 312.008 68.6887C308.261 69.2157 305.161 68.7833 302.707 67.3915C300.245 65.9429 298.782 63.7748 298.318 60.8873C298.023 58.7867 298.202 56.3587 298.857 53.6033L301.816 40.6812C301.996 39.9032 302.054 39.2871 301.99 38.8329C301.887 38.0949 301.551 37.5631 300.984 37.2375C300.466 36.8472 299.867 36.6999 299.185 36.7958C298.107 36.9475 297.071 37.6142 296.08 38.7958C295.137 39.9127 294.48 41.6261 294.11 43.9362L294.086 43.7659L291.153 61.8083C291.078 62.5136 291.077 63.1217 291.149 63.6326C291.253 64.3707 291.478 64.9469 291.826 65.3611C292.166 65.7186 292.619 66.0602 293.186 66.3857C293.639 66.7272 293.971 67.028 294.181 67.2879C294.384 67.491 294.456 67.7993 294.398 68.2127C294.218 68.9907 293.726 69.6099 292.923 70.0703C292.119 70.5307 290.837 70.8847 289.077 71.1323L269.66 73.8632C268.184 74.0708 267.073 73.9954 266.328 73.6371C265.575 73.2219 265.256 72.601 265.371 71.7742C265.503 71.0609 266.015 70.381 266.908 69.7342C267.696 69.1603 268.33 68.5211 268.81 67.8167C269.29 67.1123 269.632 66.0509 269.838 64.6324L276.806 20.3161C276.904 19.7811 276.93 19.3434 276.882 19.0027C276.794 18.3782 276.552 17.8912 276.155 17.5417C275.815 17.1842 275.362 16.8426 274.795 16.5171C274.164 16.1427 273.682 15.8052 273.35 15.5045C273.075 15.1958 272.983 14.7456 273.073 14.1539C273.23 12.8001 274.859 11.4131 277.959 9.9928C281.06 8.57247 284.37 7.61477 287.89 7.11969C291.183 6.65655 293.684 6.9417 295.392 7.97514C297.158 9.00059 298.192 10.592 298.495 12.7495C298.671 13.9985 298.644 15.2471 298.414 16.4953L295.924 32.1305C297.731 28.9236 299.775 26.5807 302.057 25.1019C304.395 23.615 307.012 22.668 309.907 22.2607C313.371 21.7737 316.3 22.4327 318.696 24.2379C321.149 26.0351 322.611 28.6086 323.082 31.9583C323.33 33.7183 323.29 35.4899 322.962 37.2729L320.126 54.7805ZM358.064 15.4876C364.593 14.5693 369.988 15.0553 374.249 16.9457C378.502 18.7792 380.975 22.1657 381.67 27.1051C381.934 28.9786 381.893 31.1556 381.547 33.6359L379.708 45.8794C379.683 46.1144 379.695 46.4023 379.743 46.743C379.87 47.6514 380.303 48.0536 381.041 47.9498C381.723 47.854 382.25 47.4903 382.625 46.8587C383.048 46.1623 383.345 45.8021 383.515 45.7782C383.799 45.7382 384.054 45.905 384.28 46.2785C384.563 46.6439 384.74 47.0822 384.812 47.5931C385.085 49.1181 384.708 50.7632 383.683 52.5286C382.714 54.2859 381.28 55.8193 379.379 57.1288C377.479 58.4382 375.309 59.2645 372.867 59.6079C369.915 60.0231 367.313 59.8391 365.06 59.0559C362.808 58.2726 361.137 56.8865 360.046 54.8977C358.631 57.1811 356.839 59.0543 354.671 60.5172C352.495 61.9233 350.072 62.814 347.404 63.1893C344.395 63.6125 341.789 63.4001 339.585 62.5521C337.373 61.6473 335.629 60.3583 334.351 58.6853C333.123 56.9475 332.365 55.0566 332.077 53.0127C331.949 52.1044 331.911 51.2124 331.961 50.3368C332.319 46.2916 333.862 43.0638 336.592 40.6535C339.378 38.2352 342.872 36.7306 347.073 36.1397C351.786 35.4769 356.517 35.5642 361.266 36.4015L362.605 30.4814C363.007 27.993 363.117 26.096 362.933 24.7901C362.685 23.4355 362.087 22.4775 361.139 21.916C360.192 21.3545 358.838 21.1975 357.078 21.445C357.547 22.3055 357.849 23.2183 357.984 24.1835C358.28 26.2841 357.741 28.2127 356.366 29.9692C354.992 31.7257 352.829 32.8116 349.877 33.2268C347.095 33.6181 344.825 33.3294 343.068 32.3607C341.359 31.3273 340.377 29.9021 340.122 28.0854C339.723 25.2466 340.981 22.6669 343.897 20.3462C346.813 18.0254 351.535 16.4059 358.064 15.4876ZM356.924 41.9624C355.335 42.186 354.117 42.9942 353.27 44.387C352.473 45.715 352.174 47.0887 352.374 48.508C352.501 49.4164 352.804 50.1265 353.281 50.6384C353.815 51.1422 354.48 51.3383 355.274 51.2265C356.013 51.1227 356.767 50.727 357.539 50.0395C358.36 49.2872 358.885 48.287 359.115 47.0388L360.196 41.7627C359.207 41.7282 358.117 41.7947 356.924 41.9624ZM42.0731 168.826C45.9087 168.287 49.2616 168.169 52.1318 168.472C55.0482 168.769 57.3335 169.437 58.9878 170.477C60.6883 171.51 61.649 172.812 61.87 174.383C62.0975 176.001 61.6358 177.409 60.4848 178.607C59.3801 179.8 57.6955 180.555 55.4311 180.873C53.1206 181.198 51.0753 180.897 49.2954 179.969C47.5617 179.035 46.5714 177.69 46.3244 175.934C46.2399 175.333 46.2511 174.742 46.3579 174.162C45.4936 174.048 44.738 174.036 44.091 174.127C42.9357 174.289 42.0043 174.703 41.2967 175.368C40.6353 176.027 40.3992 176.861 40.5884 177.871C40.7574 179.073 41.5011 180.005 42.8196 180.668C44.1381 181.331 46.2252 182.097 49.081 182.968C51.5346 183.66 53.5625 184.341 55.1648 185.011C56.8068 185.628 58.2271 186.512 59.4257 187.663C60.6706 188.808 61.4165 190.258 61.6635 192.014C61.7155 192.384 61.7206 193.09 61.6787 194.132C61.3748 197.333 59.6629 200.071 56.5429 202.348C53.4229 204.625 49.1133 206.15 43.6141 206.923C37.4217 207.794 32.3832 207.654 28.4984 206.504C24.6599 205.348 22.5359 203.314 22.1265 200.402C21.847 198.415 22.2365 196.829 23.295 195.643C24.3535 194.457 25.8763 193.725 27.8635 193.445C30.174 193.12 32.2388 193.56 34.0577 194.766C35.9228 195.964 37.0114 197.672 37.3233 199.891C37.4078 200.491 37.4263 201.125 37.3786 201.791C38.5267 201.913 39.6091 201.902 40.6257 201.759C41.8272 201.59 42.7753 201.127 43.4699 200.369C44.1645 199.612 44.4306 198.655 44.2681 197.5C44.0724 196.444 43.4142 195.617 42.2935 195.021C41.1664 194.378 39.419 193.682 37.0513 192.931C34.8353 192.253 32.9987 191.592 31.5416 190.949C30.0779 190.259 28.7699 189.336 27.6175 188.178C26.5112 187.014 25.8346 185.554 25.5877 183.798C25.0547 180.009 26.2034 176.784 29.0338 174.124C31.904 171.411 36.2504 169.645 42.0731 168.826ZM87.856 162.67C93.7249 161.844 98.1096 162.194 101.01 163.718C103.904 165.196 105.556 167.391 105.965 170.302C106.089 171.18 106.11 172.002 106.029 172.767C105.765 175.915 104.133 178.383 101.133 180.171C98.1725 181.907 94.5435 183.077 90.2458 183.682C88.0738 183.987 86.021 184.135 84.0873 184.124C84.3791 186.533 85.2633 188.129 86.7399 188.911C88.2165 189.693 90.1564 189.915 92.5594 189.577C93.6685 189.421 94.7151 189.156 95.6993 188.782C96.6769 188.362 97.9156 187.787 99.4153 187.058C100.644 186.414 101.49 186.059 101.952 185.994C102.46 185.922 102.757 186.187 102.841 186.788C103.115 188.399 102.755 190.193 101.76 192.171C100.76 194.102 99.1223 195.864 96.8486 197.456C94.5749 199.049 91.7051 200.088 88.2392 200.576C83.1097 201.297 78.7224 200.595 75.0774 198.469C71.4324 196.342 69.2621 192.807 68.5667 187.862C68.3717 186.476 68.329 184.832 68.4388 182.932C68.7946 177.085 70.7119 172.456 74.1908 169.045C77.7093 165.581 82.2644 163.456 87.856 162.67ZM83.9876 179.897C84.1789 179.917 84.4363 179.904 84.7598 179.859C86.7007 179.586 88.0527 178.477 88.8159 176.531C89.5791 174.586 89.7816 172.508 89.4234 170.296C89.1952 169.008 88.7345 168.413 88.0413 168.511C87.533 168.582 86.9907 169.083 86.4146 170.012C85.8319 170.895 85.3077 172.194 84.842 173.909C84.4225 175.618 84.1377 177.613 83.9876 179.897ZM152.142 181.621C152.102 182.004 152.094 182.287 152.12 182.472C152.166 182.796 152.271 183.04 152.435 183.206C152.646 183.364 152.89 183.424 153.168 183.385C153.722 183.307 154.152 183.011 154.457 182.497C154.801 181.93 155.042 181.637 155.181 181.618C155.412 181.585 155.62 181.721 155.804 182.025C156.028 182.276 156.169 182.61 156.227 183.026C156.456 184.313 156.175 185.672 155.387 187.102C154.592 188.487 153.375 189.718 151.736 190.797C150.097 191.876 148.191 192.568 146.019 192.873C143.293 193.257 141.043 193.008 139.27 192.126C137.496 191.245 136.252 189.935 135.536 188.198C134.132 190.28 132.482 191.95 130.585 193.206C128.728 194.41 126.76 195.158 124.68 195.451C121.446 195.906 118.609 195.503 116.169 194.244C113.77 192.932 112.369 190.844 111.966 187.979C111.784 186.685 111.826 185.312 112.094 183.861L114.492 168.749C114.572 168.314 114.593 167.958 114.554 167.68C114.482 167.172 114.312 166.795 114.042 166.551C113.765 166.26 113.373 165.985 112.865 165.726C112.351 165.422 111.982 165.144 111.758 164.892C111.535 164.641 111.459 164.275 111.533 163.793C111.661 162.691 112.987 161.562 115.51 160.406C118.027 159.204 120.718 158.401 123.584 157.998C126.264 157.621 128.299 157.853 129.69 158.695C131.081 159.536 131.9 160.834 132.147 162.59C132.296 163.653 132.277 164.693 132.09 165.709L129.751 180.741C129.638 181.275 129.614 181.774 129.679 182.236C129.77 182.883 130.023 183.342 130.438 183.613C130.853 183.885 131.361 183.978 131.962 183.894C132.84 183.77 133.52 183.415 134.003 182.829C134.486 182.243 134.921 181.31 135.306 180.03L137.575 165.503C137.655 165.067 137.676 164.711 137.637 164.434C137.565 163.925 137.395 163.549 137.124 163.304C136.848 163.013 136.479 162.735 136.018 162.47C135.503 162.165 135.134 161.887 134.911 161.636C134.687 161.385 134.612 161.018 134.685 160.537C134.767 159.441 136.069 158.316 138.593 157.16C141.11 155.957 143.801 155.155 146.666 154.752C149.347 154.375 151.382 154.607 152.773 155.448C154.21 156.283 155.048 157.555 155.289 159.265C155.412 160.143 155.374 161.209 155.173 162.462L152.142 181.621ZM206.189 104.67C210.248 104.099 213.33 104.45 215.436 105.724C217.612 106.988 218.887 108.949 219.261 111.609C219.477 113.148 219.444 114.687 219.161 116.225L210.21 172.076C210.119 172.946 210.117 173.695 210.206 174.325C210.334 175.235 210.612 175.945 211.04 176.455C211.459 176.896 212.018 177.317 212.717 177.718C213.275 178.139 213.684 178.51 213.944 178.83C214.193 179.081 214.282 179.461 214.211 179.97C213.989 180.929 213.383 181.692 212.392 182.26C211.401 182.827 209.821 183.264 207.652 183.569L183.72 186.935C181.9 187.191 180.531 187.098 179.613 186.656C178.685 186.144 178.291 185.379 178.434 184.36C178.595 183.481 179.227 182.643 180.328 181.846C181.299 181.138 182.08 180.35 182.672 179.482C183.263 178.614 183.686 177.306 183.939 175.557L192.527 120.935C192.649 120.275 192.68 119.736 192.621 119.316C192.512 118.546 192.214 117.946 191.725 117.515C191.306 117.075 190.748 116.654 190.049 116.252C189.27 115.791 188.677 115.375 188.268 115.004C187.929 114.624 187.815 114.069 187.927 113.34C188.12 111.671 190.128 109.961 193.949 108.211C197.77 106.46 201.85 105.28 206.189 104.67ZM255.679 120.188C263.727 119.056 270.376 119.655 275.628 121.985C280.87 124.245 283.919 128.419 284.775 134.507C285.1 136.816 285.049 139.5 284.623 142.557L282.356 157.648C282.326 157.937 282.34 158.292 282.399 158.712C282.557 159.832 283.09 160.327 284 160.199C284.84 160.081 285.49 159.633 285.952 158.855C286.473 157.996 286.839 157.552 287.049 157.523C287.399 157.474 287.713 157.679 287.992 158.139C288.341 158.59 288.559 159.13 288.648 159.76C288.984 161.639 288.52 163.667 287.256 165.843C286.062 168.009 284.294 169.899 281.952 171.513C279.61 173.127 276.934 174.146 273.925 174.569C270.286 175.081 267.079 174.854 264.302 173.888C261.526 172.923 259.466 171.214 258.122 168.763C256.377 171.578 254.169 173.886 251.496 175.689C248.814 177.423 245.829 178.52 242.54 178.983C238.831 179.505 235.619 179.243 232.903 178.198C230.177 177.082 228.026 175.494 226.452 173.432C224.937 171.29 224.003 168.959 223.649 166.44C223.491 165.32 223.444 164.221 223.506 163.142C223.947 158.156 225.849 154.177 229.213 151.206C232.648 148.226 236.954 146.371 242.132 145.643C247.941 144.826 253.772 144.933 259.626 145.966L261.276 138.669C261.772 135.602 261.907 133.263 261.681 131.654C261.374 129.984 260.637 128.803 259.47 128.111C258.302 127.419 256.633 127.226 254.464 127.531C255.041 128.591 255.414 129.716 255.581 130.906C255.945 133.495 255.28 135.872 253.587 138.037C251.893 140.202 249.227 141.541 245.588 142.053C242.159 142.535 239.362 142.179 237.196 140.985C235.09 139.711 233.879 137.955 233.564 135.715C233.072 132.216 234.623 129.037 238.217 126.176C241.811 123.316 247.632 121.32 255.679 120.188ZM254.274 152.82C252.315 153.095 250.814 154.091 249.771 155.808C248.788 157.445 248.419 159.138 248.665 160.887C248.823 162.007 249.196 162.882 249.784 163.513C250.442 164.134 251.261 164.376 252.241 164.238C253.151 164.11 254.081 163.623 255.032 162.775C256.044 161.848 256.691 160.615 256.974 159.077L258.307 152.574C257.088 152.531 255.744 152.613 254.274 152.82ZM352.029 147.848C351.968 148.428 351.952 148.822 351.982 149.032C352.05 149.522 352.245 149.887 352.564 150.128C352.883 150.369 353.253 150.459 353.673 150.4C354.512 150.282 355.163 149.834 355.624 149.055C356.146 148.197 356.512 147.753 356.721 147.723C357.071 147.674 357.386 147.88 357.665 148.34C357.943 148.8 358.127 149.346 358.216 149.975C358.551 151.855 358.087 153.883 356.823 156.059C355.629 158.225 353.861 160.115 351.519 161.729C349.177 163.342 346.537 164.356 343.598 164.769C340.099 165.262 336.961 165.025 334.185 164.059C331.409 163.094 329.378 161.596 328.094 159.564C326.549 162.279 324.635 164.404 322.353 165.938C320.071 167.472 317.566 168.431 314.837 168.815C311.618 169.267 308.496 168.886 305.47 167.67C302.515 166.444 299.99 164.48 297.898 161.777C295.865 158.995 294.583 155.714 294.051 151.935C293.156 145.567 293.504 139.417 295.096 133.484C296.748 127.471 299.502 122.445 303.358 118.406C307.205 114.297 311.892 111.854 317.42 111.076C320.429 110.653 323.033 110.643 325.231 111.048C327.498 111.443 329.605 112.217 331.552 113.37L333.467 101.112C333.588 100.453 333.619 99.9131 333.56 99.4932C333.452 98.7234 333.154 98.1232 332.665 97.6924C332.246 97.2517 331.687 96.8308 330.989 96.4295C330.21 95.9681 329.616 95.5521 329.207 95.1814C328.868 94.8009 328.755 94.246 328.866 93.5167C329.06 91.8482 331.067 90.1386 334.889 88.388C338.71 86.6373 342.79 85.4569 347.129 84.8467C351.187 84.2758 354.27 84.6273 356.376 85.9011C358.552 87.165 359.827 89.1265 360.201 91.7857C360.417 93.3252 360.384 94.8642 360.101 96.4026L352.029 147.848ZM330.351 120.818C329.094 119.996 327.8 119.678 326.471 119.865C324.441 120.151 322.659 121.936 321.122 125.22C319.586 128.505 318.523 132.365 317.934 136.801C317.345 141.237 317.326 145.165 317.879 148.584C318.42 152.433 319.95 154.18 322.47 153.825C323.379 153.697 324.1 153.239 324.631 152.451C325.153 151.593 325.575 150.284 325.899 148.526L330.351 120.818ZM392.628 100.926C402.145 99.5878 409.414 100.528 414.434 103.747C419.524 106.956 422.507 111.674 423.383 117.902C423.678 120.002 423.728 122.385 423.532 125.053C423.009 130.979 421.234 136.366 418.205 141.217C415.167 145.997 411.156 149.951 406.172 153.078C401.248 156.126 395.708 158.083 389.55 158.949C379.823 160.317 372.344 159.406 367.114 156.217C361.945 152.948 358.907 148.094 358.002 141.656C357.697 139.487 357.637 137.033 357.823 134.295C358.385 128.65 360.225 123.467 363.343 118.747C366.521 113.947 370.642 110.013 375.706 106.946C380.83 103.799 386.47 101.792 392.628 100.926ZM393.627 110.313C392.158 110.519 390.77 112.07 389.465 114.966C388.22 117.781 386.989 122.985 385.773 130.578C384.558 138.171 384.157 143.437 384.57 146.376C384.786 147.915 385.179 148.93 385.748 149.421C386.306 149.842 387.006 149.994 387.845 149.876C389.335 149.809 390.662 148.338 391.827 145.462C393.063 142.576 394.329 137.118 395.626 129.085C396.84 121.992 397.231 116.906 396.798 113.827C396.591 112.358 396.204 111.378 395.635 110.887C395.136 110.386 394.467 110.195 393.627 110.313Z" fill="black"/>
<path d="M146.154 140.882C158.154 142.969 160.94 145.08 163.154 153.795" stroke="black" stroke-width="2"/>
<path d="M17.2513 147.338C17.2513 147.338 30.7564 157.871 38.6851 144.538C46.6138 131.205 55.5473 146.419 55.5473 146.419" stroke="black" stroke-width="2"/>
</g>
<defs>
<clipPath id="clip0">
<rect width="431" height="215" fill="white"/>
</clipPath>
</defs>
</svg>
