<svg width="28" height="28" viewBox="0 0 28 28" fill="none" xmlns="http://www.w3.org/2000/svg">
<g clip-path="url(#clip0)">
<path d="M26.4528 0.000976562H1.54536C0.692462 0.000976562 0 0.692067 0 1.54636V26.4542C0 27.3085 0.692462 28.0005 1.54536 28.0005H14.9548V17.1574H11.3062V12.9311H14.9548V9.81455C14.9548 6.19866 17.1626 4.22866 20.3889 4.22866C21.9357 4.22866 23.262 4.34438 23.6488 4.39463V8.17419L21.411 8.17512C19.6568 8.17512 19.3184 9.00913 19.3184 10.2323V12.9298H23.5036L22.9564 17.1556H19.3179V27.9991H26.4523C27.3062 27.9991 27.9991 27.3062 27.9991 26.4542V1.54544C27.9986 0.692067 27.3066 0.000976562 26.4528 0.000976562Z" fill="#702C1E"/>
</g>
<defs>
<clipPath id="clip0">
<rect width="28" height="28" fill="white"/>
</clipPath>
</defs>
</svg>
