<svg width="28" height="28" viewBox="0 0 28 28" fill="none" xmlns="http://www.w3.org/2000/svg">
<g clip-path="url(#clip0)">
<path d="M20.6973 28H7.3027C3.27591 28 0 24.7237 0 20.6973V7.3027C0 3.27634 3.27591 0 7.3027 0H20.6973C24.7241 0 28 3.27634 28 7.3027V20.6973C28 24.7237 24.7241 28 20.6973 28ZM7.3027 1.99994C4.37885 1.99994 1.99994 4.37885 1.99994 7.3027V20.6973C1.99994 23.6212 4.37885 26.0001 7.3027 26.0001H20.6973C23.6212 26.0001 26.0001 23.6212 26.0001 20.6973V7.3027C26.0001 4.37885 23.6212 1.99994 20.6973 1.99994H7.3027Z" fill="#702C1E"/>
<path d="M14 21.9999C9.58887 21.9999 6 18.4111 6 14C6 9.58887 9.58887 6 14 6C18.4111 6 21.9999 9.58887 21.9999 14C21.9999 18.4111 18.4111 21.9999 14 21.9999ZM14 7.99994C10.6914 7.99994 7.99994 10.6914 7.99994 14C7.99994 17.3086 10.6914 20 14 20C17.3086 20 20 17.3086 20 14C20 10.6914 17.3086 7.99994 14 7.99994Z" fill="#702C1E"/>
<path d="M22.9999 5.49997C22.9999 6.3284 22.3285 7.00003 21.5001 7.00003C20.6716 7.00003 20 6.3284 20 5.49997C20 4.67154 20.6716 4.00012 21.5001 4.00012C22.3285 4.00012 22.9999 4.67154 22.9999 5.49997Z" fill="#702C1E"/>
</g>
<defs>
<clipPath id="clip0">
<rect width="28" height="28" fill="white"/>
</clipPath>
</defs>
</svg>
