<svg width="453" height="1024" viewBox="0 0 453 1024" fill="none" xmlns="http://www.w3.org/2000/svg">
<g clip-path="url(#clip0)">
<path d="M253.751 8.48277L253.864 6.99188L252.514 6.87546L252.4 8.36634L251.049 8.24992L250.936 9.74081L252.287 9.85723L252.173 11.3481L253.524 11.4645L253.637 9.97365L254.988 10.0901L255.101 8.59919L253.751 8.48277Z" fill="#F28E8F" fill-opacity="0.56"/>
<path d="M9.46674 46.7377L8.14868 46.5133L8.06753 48.144L9.38559 48.3684L9.46674 46.7377Z" fill="#F28E8F" fill-opacity="0.56"/>
<path d="M445.286 262.342C426.379 192.775 430.318 90.2072 447.649 62.2457C456.709 38.5783 449.136 18.2056 447.649 -3C446.162 -24.2056 -1 -2.99998 -1 -2.99998V1024H453.164C432.494 938.854 424.409 925.745 442.922 829.641C451.194 758.639 459.072 655.364 442.922 589.382C419.288 506.188 438.589 445.944 448.831 378.528C456.798 336.413 453.812 293.714 445.286 262.342Z" fill="#FFBDD0"/>
<g clip-path="url(#clip1)">
<path d="M159.282 150.901C158.407 147.719 155.799 145.044 152.193 143.631C145.856 141.25 138.307 143.513 135.33 148.685C134.833 149.549 134.485 150.464 134.296 151.403C134.214 151.805 133.747 152.08 133.253 152.016C132.999 151.984 132.775 151.864 132.637 151.688C128.887 146.904 121.055 145.527 115.143 148.614C113.33 149.561 111.839 150.864 110.809 152.403C106.367 159.026 112.241 167.556 117.828 171.498C128.369 178.942 144.4 177.98 153.635 169.349C155.439 167.663 156.898 165.753 157.955 163.692C160.035 159.637 160.499 155.162 159.282 150.901ZM113.077 162.573L111.301 162.879L110.939 161.437L112.715 161.131L113.077 162.573ZM143.56 143.785L145.335 143.479L145.698 144.921L143.922 145.227L143.56 143.785ZM138.483 160.456L140.259 160.15L140.621 161.592L138.845 161.898L138.483 160.456ZM134.008 153.704L135.784 153.398L136.146 154.84L134.37 155.146L134.008 153.704V153.704ZM132.612 159.21L134.388 158.904L134.75 160.346L132.974 160.652L132.612 159.21ZM119.585 147.912L121.361 147.607L121.723 149.049L119.947 149.355L119.585 147.912ZM112.499 152.894L112.137 151.451L113.913 151.146L114.275 152.588L112.499 152.894ZM127.173 174.438L125.397 174.744L125.035 173.302L126.811 172.996L127.173 174.438ZM128.044 170.527L126.268 170.833L125.905 169.391L127.681 169.085L128.044 170.527ZM127.487 162.956C126.265 164.76 125.039 166.563 123.809 168.364C123.568 168.72 123.02 168.852 122.585 168.659C122.49 168.617 122.405 168.561 122.334 168.494C119.666 165.984 116.023 162.543 114.914 158.748C114.463 157.172 114.814 155.51 115.887 154.137C116.922 152.793 118.585 151.846 120.49 151.518C124.821 150.772 127.609 153.085 128.774 155.499C129.165 156.31 129.403 157.166 129.481 158.037C129.641 159.783 128.703 161.166 127.612 162.769L127.487 162.956ZM140.329 175.182L138.553 175.488L138.191 174.046L139.967 173.74L140.329 175.182ZM138.535 171.73C133.889 172.53 132.137 172.073 131.595 169.916C130.895 167.128 133.111 164.389 136.543 163.798C139.976 163.207 143.327 164.988 144.027 167.776C144.568 169.932 143.182 170.93 138.535 171.73ZM151.673 168.716L149.898 169.022L149.535 167.58L151.311 167.274L151.673 168.716ZM152.066 163.669C151.958 163.865 151.745 164.009 151.489 164.061C151.214 164.116 150.923 164.069 150.697 163.931L144.855 160.289C142.656 158.938 140.758 157.776 140.024 155.641C139.792 154.977 139.648 154.294 139.596 153.605C139.472 152.362 139.813 151.115 140.576 150.028C141.62 148.596 143.354 147.583 145.353 147.237C147.211 146.914 149.145 147.211 150.721 148.061C152.391 148.968 153.547 150.379 153.936 151.985C154.769 155.935 154.117 160.006 152.066 163.669ZM159.25 154.624L157.474 154.929L157.112 153.487L158.888 153.181L159.25 154.624Z" fill="#F28E8F" fill-opacity="0.56"/>
<path d="M117.26 182.915L116.897 181.473L115.122 181.779L115.484 183.221L113.708 183.527L114.07 184.969L115.846 184.663L116.208 186.105L117.984 185.799L117.622 184.357L119.398 184.052L119.036 182.609L117.26 182.915Z" fill="#F28E8F" fill-opacity="0.56"/>
<path d="M124.708 179.376L122.932 179.682L123.294 181.124L125.07 180.818L124.708 179.376Z" fill="#F28E8F" fill-opacity="0.56"/>
<path d="M154.553 176.495L154.191 175.052L152.415 175.358L152.777 176.8L151.002 177.106L151.364 178.548L153.14 178.242L153.502 179.684L155.278 179.379L154.916 177.937L156.691 177.631L156.329 176.189L154.553 176.495Z" fill="#F28E8F" fill-opacity="0.56"/>
<path d="M158.088 172.125L156.312 172.431L156.674 173.873L158.45 173.567L158.088 172.125Z" fill="#F28E8F" fill-opacity="0.56"/>
<path d="M161.803 168.476L160.027 168.782L160.389 170.224L162.165 169.918L161.803 168.476Z" fill="#F28E8F" fill-opacity="0.56"/>
<path d="M128.792 140.309L128.429 138.867L126.654 139.173L127.016 140.615L125.24 140.921L125.602 142.363L127.378 142.057L127.74 143.499L129.516 143.194L129.154 141.752L130.93 141.446L130.568 140.004L128.792 140.309Z" fill="#F28E8F" fill-opacity="0.56"/>
<path d="M123.102 139.785L121.326 140.09L121.688 141.532L123.464 141.227L123.102 139.785Z" fill="#F28E8F" fill-opacity="0.56"/>
</g>
<g clip-path="url(#clip2)">
<path d="M345.579 498.777C344.705 495.595 342.097 492.92 338.491 491.506C332.154 489.126 324.604 491.389 321.628 496.561C321.131 497.425 320.783 498.339 320.593 499.279C320.511 499.681 320.045 499.955 319.551 499.892C319.297 499.859 319.073 499.74 318.934 499.564C315.185 494.779 307.352 493.403 301.44 496.49C299.627 497.437 298.136 498.74 297.107 500.279C292.664 506.902 298.538 515.432 304.125 519.374C314.666 526.818 330.697 525.856 339.932 517.225C341.736 515.539 343.195 513.628 344.252 511.568C346.333 507.513 346.797 503.038 345.579 498.777ZM299.374 510.449L297.599 510.754L297.236 509.312L299.012 509.007L299.374 510.449ZM329.857 491.661L331.633 491.355L331.995 492.797L330.219 493.103L329.857 491.661ZM324.78 508.331L326.556 508.026L326.918 509.468L325.142 509.773L324.78 508.331ZM320.306 501.58L322.081 501.274L322.444 502.716L320.668 503.022L320.306 501.58V501.58ZM318.909 507.085L320.685 506.78L321.047 508.222L319.271 508.528L318.909 507.085ZM305.882 495.788L307.658 495.482L308.02 496.925L306.244 497.23L305.882 495.788ZM298.796 500.769L298.434 499.327L300.21 499.021L300.572 500.464L298.796 500.769ZM313.47 522.314L311.695 522.62L311.332 521.178L313.108 520.872L313.47 522.314ZM314.341 518.403L312.565 518.709L312.203 517.267L313.979 516.961L314.341 518.403ZM313.784 510.832C312.562 512.636 311.336 514.438 310.106 516.24C309.866 516.596 309.318 516.728 308.882 516.535C308.787 516.492 308.702 516.437 308.632 516.37C305.963 513.859 302.32 510.418 301.211 506.624C300.761 505.048 301.111 503.386 302.184 502.013C303.22 500.668 304.883 499.722 306.788 499.393C311.118 498.648 313.907 500.961 315.071 503.374C315.462 504.186 315.7 505.041 315.778 505.912C315.939 507.659 315 509.042 313.91 510.644L313.784 510.832ZM326.626 523.058L324.85 523.364L324.488 521.922L326.264 521.616L326.626 523.058ZM324.833 519.606C320.186 520.406 318.434 519.948 317.893 517.792C317.193 515.004 319.408 512.265 322.841 511.674C326.274 511.083 329.624 512.864 330.324 515.651C330.866 517.808 329.479 518.806 324.833 519.606ZM337.971 516.592L336.195 516.897L335.833 515.455L337.609 515.15L337.971 516.592ZM338.363 511.544C338.256 511.74 338.042 511.885 337.786 511.936C337.511 511.992 337.221 511.944 336.994 511.807L331.152 508.165C328.953 506.813 327.056 505.651 326.321 503.517C326.089 502.853 325.945 502.17 325.893 501.48C325.769 500.238 326.111 498.991 326.873 497.904C327.917 496.472 329.651 495.459 331.65 495.113C333.509 494.79 335.443 495.087 337.018 495.937C338.689 496.844 339.844 498.255 340.233 499.861C341.066 503.811 340.415 507.882 338.363 511.544ZM345.548 502.499L343.772 502.805L343.41 501.363L345.186 501.057L345.548 502.499Z" fill="#F28E8F" fill-opacity="0.56"/>
<path d="M303.557 530.791L303.195 529.349L301.419 529.655L301.781 531.097L300.005 531.402L300.367 532.845L302.143 532.539L302.505 533.981L304.281 533.675L303.919 532.233L305.695 531.927L305.333 530.485L303.557 530.791Z" fill="#F28E8F" fill-opacity="0.56"/>
<path d="M311.005 527.252L309.229 527.558L309.591 529L311.367 528.694L311.005 527.252Z" fill="#F28E8F" fill-opacity="0.56"/>
<path d="M340.851 524.37L340.489 522.928L338.713 523.234L339.075 524.676L337.299 524.982L337.661 526.424L339.437 526.118L339.799 527.56L341.575 527.254L341.213 525.812L342.989 525.507L342.627 524.065L340.851 524.37Z" fill="#F28E8F" fill-opacity="0.56"/>
<path d="M344.385 520.001L342.609 520.306L342.971 521.748L344.747 521.443L344.385 520.001Z" fill="#F28E8F" fill-opacity="0.56"/>
<path d="M348.1 516.352L346.324 516.658L346.687 518.1L348.463 517.794L348.1 516.352Z" fill="#F28E8F" fill-opacity="0.56"/>
<path d="M315.089 488.185L314.727 486.743L312.951 487.049L313.313 488.491L311.537 488.797L311.899 490.239L313.675 489.933L314.037 491.375L315.813 491.069L315.451 489.627L317.227 489.322L316.865 487.879L315.089 488.185Z" fill="#F28E8F" fill-opacity="0.56"/>
<path d="M309.399 487.66L307.623 487.966L307.985 489.408L309.761 489.102L309.399 487.66Z" fill="#F28E8F" fill-opacity="0.56"/>
</g>
<g clip-path="url(#clip3)">
<path d="M418.437 334.797C417.563 331.615 414.955 328.94 411.348 327.526C405.012 325.145 397.462 327.408 394.486 332.581C393.989 333.444 393.64 334.359 393.451 335.298C393.369 335.7 392.902 335.975 392.409 335.912C392.155 335.879 391.93 335.76 391.792 335.584C388.042 330.799 380.21 329.423 374.298 332.51C372.485 333.456 370.994 334.76 369.965 336.298C365.522 342.921 371.396 351.451 376.983 355.393C387.524 362.838 403.555 361.876 412.79 353.245C414.594 351.558 416.053 349.648 417.11 347.587C419.19 343.532 419.655 339.058 418.437 334.797ZM372.232 346.468L370.456 346.774L370.094 345.332L371.87 345.026L372.232 346.468ZM402.715 327.68L404.491 327.375L404.853 328.817L403.077 329.122L402.715 327.68ZM397.638 344.351L399.414 344.045L399.776 345.487L398 345.793L397.638 344.351ZM393.163 337.599L394.939 337.293L395.302 338.736L393.526 339.041L393.163 337.599V337.599ZM391.767 343.105L393.543 342.799L393.905 344.241L392.129 344.547L391.767 343.105ZM378.74 331.808L380.516 331.502L380.878 332.944L379.102 333.25L378.74 331.808ZM371.654 336.789L371.292 335.347L373.068 335.041L373.43 336.483L371.654 336.789ZM386.328 358.334L384.552 358.64L384.19 357.197L385.966 356.892L386.328 358.334ZM387.199 354.423L385.423 354.729L385.061 353.286L386.837 352.981L387.199 354.423ZM386.642 346.851C385.42 348.655 384.194 350.458 382.964 352.26C382.724 352.615 382.175 352.747 381.74 352.554C381.645 352.512 381.56 352.456 381.49 352.389C378.821 349.879 375.178 346.438 374.069 342.644C373.619 341.068 373.969 339.406 375.042 338.033C376.078 336.688 377.741 335.742 379.646 335.413C383.976 334.668 386.765 336.98 387.929 339.394C388.32 340.205 388.558 341.061 388.636 341.932C388.797 343.678 387.858 345.061 386.768 346.664L386.642 346.851ZM399.484 359.078L397.708 359.384L397.346 357.941L399.122 357.636L399.484 359.078ZM397.691 355.625C393.044 356.425 391.292 355.968 390.751 353.811C390.051 351.024 392.266 348.285 395.699 347.694C399.131 347.103 402.482 348.884 403.182 351.671C403.724 353.828 402.337 354.825 397.691 355.625ZM410.829 352.611L409.053 352.917L408.691 351.475L410.467 351.169L410.829 352.611ZM411.221 347.564C411.113 347.76 410.9 347.905 410.644 347.956C410.369 348.011 410.078 347.964 409.852 347.827L404.01 344.184C401.811 342.833 399.914 341.671 399.179 339.536C398.947 338.873 398.803 338.19 398.751 337.5C398.627 336.258 398.968 335.011 399.731 333.924C400.775 332.492 402.509 331.478 404.508 331.133C406.366 330.809 408.301 331.106 409.876 331.957C411.546 332.864 412.702 334.274 413.091 335.88C413.924 339.83 413.273 343.902 411.221 347.564ZM418.406 338.519L416.63 338.825L416.268 337.383L418.043 337.077L418.406 338.519Z" fill="#F28E8F" fill-opacity="0.56"/>
<path d="M376.415 366.811L376.053 365.368L374.277 365.674L374.639 367.116L372.863 367.422L373.225 368.864L375.001 368.558L375.363 370.001L377.139 369.695L376.777 368.253L378.553 367.947L378.191 366.505L376.415 366.811Z" fill="#F28E8F" fill-opacity="0.56"/>
<path d="M383.863 363.272L382.087 363.577L382.449 365.019L384.225 364.714L383.863 363.272Z" fill="#F28E8F" fill-opacity="0.56"/>
<path d="M413.709 360.39L413.346 358.948L411.571 359.254L411.933 360.696L410.157 361.001L410.519 362.444L412.295 362.138L412.657 363.58L414.433 363.274L414.071 361.832L415.847 361.526L415.485 360.084L413.709 360.39Z" fill="#F28E8F" fill-opacity="0.56"/>
<path d="M417.243 356.02L415.467 356.326L415.829 357.768L417.605 357.462L417.243 356.02Z" fill="#F28E8F" fill-opacity="0.56"/>
<path d="M420.958 352.372L419.182 352.677L419.545 354.12L421.32 353.814L420.958 352.372Z" fill="#F28E8F" fill-opacity="0.56"/>
<path d="M387.947 324.205L387.585 322.763L385.809 323.069L386.171 324.511L384.395 324.816L384.757 326.258L386.533 325.953L386.895 327.395L388.671 327.089L388.309 325.647L390.085 325.341L389.723 323.899L387.947 324.205Z" fill="#F28E8F" fill-opacity="0.56"/>
<path d="M382.257 323.68L380.481 323.986L380.843 325.428L382.619 325.122L382.257 323.68Z" fill="#F28E8F" fill-opacity="0.56"/>
</g>
<g clip-path="url(#clip4)">
<path d="M351.77 215.42C353.246 212.394 352.949 208.965 350.962 206.1C347.4 201.15 339.641 199.44 333.631 202.281C332.628 202.755 331.712 203.341 330.908 204.023C330.564 204.315 329.992 204.32 329.63 204.034C329.444 203.887 329.342 203.684 329.349 203.474C329.569 197.773 324.087 192.941 317.105 192.682C314.964 192.602 312.841 192.968 310.935 193.744C302.721 197.083 301.663 206.863 303.533 212.74C307.056 223.834 320.882 230.621 334.415 227.898C337.059 227.367 339.574 226.487 341.862 225.295C346.366 222.949 349.832 219.494 351.77 215.42ZM305.785 203.167L304.116 202.578L304.813 201.223L306.482 201.811L305.785 203.167ZM343.767 202.146L345.436 202.735L344.739 204.09L343.07 203.502L343.767 202.146ZM328.105 213.435L329.774 214.023L329.077 215.379L327.409 214.79L328.105 213.435ZM329.086 205.777L330.755 206.365L330.058 207.72L328.389 207.132L329.086 205.777V205.777ZM324.144 209.638L325.813 210.226L325.116 211.581L323.447 210.993L324.144 209.638ZM321.236 194.205L322.905 194.793L322.208 196.148L320.539 195.56L321.236 194.205ZM311.984 194.946L312.681 193.591L314.349 194.179L313.653 195.534L311.984 194.946ZM309.179 219.571L307.51 218.983L308.207 217.628L309.876 218.216L309.179 219.571ZM312.59 216.771L310.921 216.183L311.618 214.828L313.287 215.416L312.59 216.771ZM317.353 210.291C315.106 211.195 312.856 212.096 310.604 212.994C310.162 213.172 309.621 213.021 309.396 212.657C309.347 212.578 309.316 212.492 309.304 212.403C308.844 209.081 308.225 204.534 309.93 200.895C310.647 199.387 312.081 198.188 313.908 197.568C315.685 196.954 317.703 196.962 319.494 197.593C323.564 199.027 324.259 202.244 323.551 204.777C323.312 205.627 322.918 206.443 322.382 207.195C321.31 208.704 319.586 209.396 317.585 210.197L317.353 210.291ZM319.468 226.399L317.799 225.811L318.496 224.456L320.165 225.044L319.468 226.399ZM320.376 222.717C316.009 221.178 314.886 219.975 315.928 217.948C317.275 215.328 320.982 214.126 324.208 215.263C327.434 216.4 328.958 219.446 327.611 222.066C326.569 224.092 324.743 224.256 320.376 222.717ZM333.241 226.452L331.572 225.863L332.269 224.508L333.938 225.096L333.241 226.452ZM337.043 222.493C336.82 222.603 336.545 222.621 336.299 222.542C336.035 222.457 335.829 222.281 335.738 222.062L333.452 216.31C332.578 214.161 331.821 212.31 332.69 210.21C332.957 209.555 333.31 208.927 333.743 208.336C334.497 207.257 335.637 206.395 337.012 205.862C338.857 205.18 340.98 205.168 342.859 205.829C344.608 206.441 345.991 207.599 346.698 209.042C347.445 210.576 347.421 212.281 346.633 213.783C344.594 217.42 341.252 220.455 337.043 222.493ZM349.178 218.461L347.509 217.873L348.206 216.518L349.875 217.106L349.178 218.461Z" fill="#F28E8F" fill-opacity="0.56"/>
<path d="M295.196 221.846L295.892 220.491L294.223 219.902L293.527 221.258L291.858 220.669L291.161 222.025L292.83 222.613L292.133 223.968L293.802 224.556L294.499 223.201L296.168 223.789L296.864 222.434L295.196 221.846Z" fill="#F28E8F" fill-opacity="0.56"/>
<path d="M303.751 222.46L302.082 221.872L301.385 223.227L303.054 223.816L303.751 222.46Z" fill="#F28E8F" fill-opacity="0.56"/>
<path d="M330.243 234.199L330.94 232.844L329.271 232.256L328.574 233.611L326.905 233.023L326.209 234.378L327.878 234.966L327.181 236.322L328.85 236.91L329.547 235.555L331.215 236.143L331.912 234.788L330.243 234.199Z" fill="#F28E8F" fill-opacity="0.56"/>
<path d="M336.158 232.282L334.489 231.694L333.792 233.049L335.461 233.637L336.158 232.282Z" fill="#F28E8F" fill-opacity="0.56"/>
<path d="M341.724 231.042L340.055 230.454L339.358 231.809L341.027 232.397L341.724 231.042Z" fill="#F28E8F" fill-opacity="0.56"/>
<path d="M334.037 192.313L334.734 190.958L333.065 190.37L332.368 191.725L330.699 191.137L330.002 192.492L331.671 193.08L330.974 194.436L332.643 195.024L333.34 193.669L335.009 194.257L335.706 192.902L334.037 192.313Z" fill="#F28E8F" fill-opacity="0.56"/>
<path d="M329.727 189.193L328.058 188.605L327.361 189.96L329.03 190.549L329.727 189.193Z" fill="#F28E8F" fill-opacity="0.56"/>
</g>
<g clip-path="url(#clip5)">
<path d="M222.118 603.984C223.594 600.958 223.297 597.529 221.31 594.664C217.749 589.714 209.99 588.004 203.98 590.845C202.976 591.319 202.06 591.905 201.257 592.587C200.912 592.879 200.34 592.883 199.978 592.598C199.792 592.451 199.69 592.247 199.698 592.038C199.918 586.337 194.436 581.505 187.453 581.246C185.312 581.166 183.189 581.532 181.283 582.308C173.07 585.647 172.012 595.427 173.882 601.304C177.404 612.398 191.231 619.185 204.763 616.462C207.407 615.931 209.922 615.051 212.211 613.859C216.714 611.513 220.18 608.058 222.118 603.984ZM176.134 591.731L174.465 591.142L175.162 589.787L176.831 590.375L176.134 591.731ZM214.115 590.71L215.784 591.298L215.087 592.654L213.418 592.065L214.115 590.71ZM198.454 601.999L200.123 602.587L199.426 603.943L197.757 603.354L198.454 601.999ZM199.434 594.34L201.103 594.929L200.407 596.284L198.738 595.696L199.434 594.34V594.34ZM194.492 598.201L196.161 598.79L195.464 600.145L193.795 599.557L194.492 598.201ZM191.584 582.769L193.253 583.357L192.557 584.712L190.888 584.124L191.584 582.769ZM182.332 583.51L183.029 582.154L184.698 582.743L184.001 584.098L182.332 583.51ZM179.528 608.135L177.859 607.547L178.555 606.191L180.224 606.78L179.528 608.135ZM182.939 605.335L181.27 604.747L181.966 603.392L183.635 603.98L182.939 605.335ZM187.702 598.855C185.454 599.759 183.205 600.66 180.953 601.558C180.51 601.736 179.969 601.585 179.745 601.221C179.696 601.141 179.664 601.055 179.653 600.967C179.192 597.645 178.573 593.098 180.279 589.458C180.995 587.951 182.429 586.752 184.256 586.132C186.034 585.517 188.052 585.526 189.842 586.157C193.912 587.591 194.607 590.808 193.899 593.34C193.661 594.191 193.266 595.006 192.73 595.759C191.658 597.268 189.934 597.96 187.933 598.761L187.702 598.855ZM189.817 614.963L188.148 614.375L188.844 613.02L190.513 613.608L189.817 614.963ZM190.724 611.281C186.357 609.742 185.234 608.538 186.276 606.512C187.623 603.892 191.331 602.69 194.557 603.827C197.783 604.964 199.306 608.01 197.959 610.629C196.917 612.656 195.091 612.82 190.724 611.281ZM203.59 615.015L201.921 614.427L202.618 613.072L204.286 613.66L203.59 615.015ZM207.391 611.057C207.168 611.167 206.893 611.185 206.648 611.106C206.383 611.021 206.178 610.845 206.086 610.625L203.801 604.874C202.926 602.725 202.17 600.874 203.038 598.774C203.305 598.119 203.658 597.491 204.091 596.9C204.845 595.821 205.985 594.959 207.361 594.426C209.206 593.744 211.328 593.732 213.208 594.392C214.956 595.005 216.34 596.163 217.047 597.606C217.793 599.14 217.77 600.845 216.981 602.347C214.943 605.984 211.601 609.019 207.391 611.057ZM219.526 607.025L217.857 606.437L218.554 605.082L220.223 605.67L219.526 607.025Z" fill="#F28E8F" fill-opacity="0.56"/>
<path d="M165.544 610.41L166.241 609.055L164.572 608.466L163.875 609.822L162.206 609.233L161.509 610.589L163.178 611.177L162.481 612.532L164.15 613.12L164.847 611.765L166.516 612.353L167.213 610.998L165.544 610.41Z" fill="#F28E8F" fill-opacity="0.56"/>
<path d="M174.099 611.024L172.43 610.436L171.734 611.791L173.403 612.379L174.099 611.024Z" fill="#F28E8F" fill-opacity="0.56"/>
<path d="M200.592 622.763L201.289 621.408L199.62 620.82L198.923 622.175L197.254 621.587L196.557 622.942L198.226 623.53L197.529 624.886L199.198 625.474L199.895 624.119L201.564 624.707L202.261 623.352L200.592 622.763Z" fill="#F28E8F" fill-opacity="0.56"/>
<path d="M206.506 620.846L204.837 620.258L204.14 621.613L205.809 622.201L206.506 620.846Z" fill="#F28E8F" fill-opacity="0.56"/>
<path d="M212.072 619.606L210.403 619.018L209.706 620.373L211.375 620.961L212.072 619.606Z" fill="#F28E8F" fill-opacity="0.56"/>
<path d="M204.385 580.877L205.082 579.522L203.413 578.934L202.717 580.289L201.048 579.701L200.351 581.056L202.02 581.644L201.323 582.999L202.992 583.588L203.689 582.232L205.358 582.821L206.054 581.465L204.385 580.877Z" fill="#F28E8F" fill-opacity="0.56"/>
<path d="M200.075 577.757L198.406 577.169L197.71 578.524L199.379 579.112L200.075 577.757Z" fill="#F28E8F" fill-opacity="0.56"/>
</g>
<g clip-path="url(#clip6)">
<path d="M211.252 270.21C211.551 266.296 209.763 262.488 206.391 259.86C200.426 255.361 191.313 255.887 186.038 261.035C185.157 261.894 184.418 262.853 183.842 263.885C183.595 264.327 182.979 264.515 182.466 264.305C182.202 264.197 182.005 263.998 181.923 263.757C179.721 257.198 171.732 253.445 164.079 255.374C161.732 255.966 159.596 257.059 157.869 258.55C150.427 264.967 153.469 276.436 158.005 282.53C166.557 294.035 184.395 297.354 197.847 289.943C200.475 288.496 202.815 286.694 204.777 284.607C208.637 280.501 210.903 275.465 211.252 270.21ZM156.34 270.915L154.285 270.777L154.458 269.013L156.512 269.151L156.34 270.915ZM196.927 257.652L198.982 257.79L198.809 259.554L196.755 259.417L196.927 257.652ZM184.842 275.491L186.897 275.629L186.724 277.394L184.67 277.256L184.842 275.491ZM182.624 266.462L184.678 266.599L184.506 268.364L182.451 268.226L182.624 266.462V266.462ZM178.938 272.431L180.993 272.569L180.82 274.333L178.766 274.196L178.938 272.431ZM169.193 255.792L171.247 255.93L171.075 257.694L169.02 257.556L169.193 255.792ZM159.516 259.583L159.689 257.819L161.744 257.956L161.571 259.721L159.516 259.583ZM167.026 288.506L164.972 288.368L165.144 286.603L167.199 286.741L167.026 288.506ZM169.512 284.232L167.458 284.094L167.63 282.33L169.685 282.467L169.512 284.232ZM171.883 275.339C169.843 277.083 167.798 278.826 165.751 280.565C165.349 280.909 164.7 280.91 164.302 280.567C164.214 280.492 164.144 280.404 164.094 280.307C162.175 276.673 159.56 271.694 159.845 267.008C159.973 265.065 161.009 263.243 162.717 261.955C164.374 260.689 166.557 260.056 168.761 260.203C173.771 260.539 175.898 263.979 176.218 267.087C176.324 268.132 176.247 269.185 175.989 270.212C175.478 272.272 173.912 273.609 172.094 275.158L171.883 275.339ZM181.061 293L179.007 292.862L179.18 291.097L181.234 291.235L181.061 293ZM180.466 288.519C175.091 288.159 173.363 287.147 173.621 284.508C173.955 281.097 177.444 278.547 181.416 278.814C185.387 279.08 188.335 282.061 188.002 285.472C187.743 288.111 185.841 288.88 180.466 288.519ZM195.96 288.67L193.906 288.533L194.078 286.768L196.133 286.906L195.96 288.67ZM198.372 282.953C198.178 283.149 197.889 283.258 197.59 283.246C197.268 283.234 196.971 283.099 196.778 282.878L191.848 277.06C189.984 274.892 188.375 273.027 188.414 270.36C188.422 269.529 188.534 268.702 188.749 267.891C189.102 266.423 189.964 265.078 191.222 264.034C192.923 262.669 195.21 261.979 197.523 262.132C199.674 262.273 201.664 263.15 203.045 264.567C204.508 266.075 205.212 268.023 205.003 269.984C204.358 274.773 202.047 279.293 198.372 282.953ZM209.754 274.498L207.7 274.36L207.872 272.596L209.927 272.733L209.754 274.498Z" fill="#F28E8F" fill-opacity="0.56"/>
<path d="M152.895 295.551L153.068 293.786L151.014 293.648L150.841 295.413L148.787 295.275L148.614 297.04L150.668 297.178L150.496 298.942L152.55 299.08L152.723 297.315L154.777 297.453L154.95 295.689L152.895 295.551Z" fill="#F28E8F" fill-opacity="0.56"/>
<path d="M162.399 293.524L160.345 293.386L160.172 295.151L162.226 295.289L162.399 293.524Z" fill="#F28E8F" fill-opacity="0.56"/>
<path d="M196.038 298.444L196.21 296.68L194.156 296.542L193.983 298.307L191.929 298.169L191.756 299.934L193.811 300.071L193.638 301.836L195.692 301.974L195.865 300.209L197.919 300.347L198.092 298.582L196.038 298.444Z" fill="#F28E8F" fill-opacity="0.56"/>
<path d="M201.605 294.378L199.551 294.24L199.378 296.004L201.433 296.142L201.605 294.378Z" fill="#F28E8F" fill-opacity="0.56"/>
<path d="M207.087 291.193L205.032 291.055L204.86 292.82L206.914 292.957L207.087 291.193Z" fill="#F28E8F" fill-opacity="0.56"/>
<path d="M182.21 249.56L182.382 247.795L180.328 247.658L180.155 249.422L178.101 249.284L177.928 251.049L179.983 251.187L179.81 252.951L181.865 253.089L182.037 251.325L184.092 251.462L184.264 249.698L182.21 249.56Z" fill="#F28E8F" fill-opacity="0.56"/>
<path d="M176.219 247.382L174.165 247.244L173.992 249.009L176.047 249.147L176.219 247.382Z" fill="#F28E8F" fill-opacity="0.56"/>
</g>
<g clip-path="url(#clip7)">
<path d="M193.579 851.777C192.705 848.595 190.097 845.92 186.491 844.506C180.154 842.126 172.604 844.389 169.628 849.561C169.131 850.425 168.783 851.339 168.593 852.279C168.511 852.681 168.045 852.955 167.551 852.892C167.297 852.859 167.073 852.74 166.934 852.564C163.185 847.779 155.352 846.403 149.44 849.49C147.627 850.437 146.136 851.74 145.107 853.279C140.664 859.902 146.538 868.432 152.125 872.374C162.666 879.818 178.697 878.856 187.932 870.225C189.736 868.539 191.195 866.628 192.252 864.568C194.333 860.513 194.797 856.038 193.579 851.777ZM147.374 863.449L145.599 863.754L145.236 862.312L147.012 862.007L147.374 863.449ZM177.857 844.661L179.633 844.355L179.995 845.797L178.219 846.103L177.857 844.661ZM172.78 861.331L174.556 861.026L174.918 862.468L173.142 862.773L172.78 861.331ZM168.306 854.58L170.081 854.274L170.444 855.716L168.668 856.022L168.306 854.58V854.58ZM166.909 860.085L168.685 859.78L169.047 861.222L167.271 861.528L166.909 860.085ZM153.882 848.788L155.658 848.482L156.02 849.925L154.244 850.23L153.882 848.788ZM146.796 853.769L146.434 852.327L148.21 852.021L148.572 853.464L146.796 853.769ZM161.47 875.314L159.695 875.62L159.332 874.178L161.108 873.872L161.47 875.314ZM162.341 871.403L160.565 871.709L160.203 870.267L161.979 869.961L162.341 871.403ZM161.784 863.832C160.562 865.636 159.336 867.438 158.106 869.24C157.866 869.596 157.318 869.728 156.882 869.535C156.787 869.492 156.702 869.437 156.632 869.37C153.963 866.859 150.32 863.418 149.211 859.624C148.761 858.048 149.111 856.386 150.184 855.013C151.22 853.668 152.883 852.722 154.788 852.393C159.118 851.648 161.907 853.961 163.071 856.374C163.462 857.186 163.7 858.041 163.778 858.912C163.939 860.659 163 862.042 161.91 863.644L161.784 863.832ZM174.626 876.058L172.85 876.364L172.488 874.922L174.264 874.616L174.626 876.058ZM172.833 872.606C168.186 873.406 166.434 872.948 165.893 870.792C165.193 868.004 167.408 865.265 170.841 864.674C174.274 864.083 177.624 865.864 178.324 868.651C178.866 870.808 177.479 871.806 172.833 872.606ZM185.971 869.592L184.195 869.897L183.833 868.455L185.609 868.15L185.971 869.592ZM186.363 864.544C186.256 864.74 186.042 864.885 185.786 864.936C185.511 864.992 185.221 864.944 184.994 864.807L179.152 861.165C176.953 859.813 175.056 858.651 174.321 856.517C174.089 855.853 173.945 855.17 173.893 854.48C173.769 853.238 174.111 851.991 174.873 850.904C175.917 849.472 177.651 848.459 179.65 848.113C181.509 847.79 183.443 848.087 185.018 848.937C186.689 849.844 187.844 851.255 188.233 852.861C189.066 856.811 188.415 860.882 186.363 864.544ZM193.548 855.499L191.772 855.805L191.41 854.363L193.186 854.057L193.548 855.499Z" fill="#F28E8F" fill-opacity="0.56"/>
<path d="M151.557 883.791L151.195 882.349L149.419 882.654L149.781 884.097L148.005 884.402L148.367 885.844L150.143 885.539L150.505 886.981L152.281 886.675L151.919 885.233L153.695 884.927L153.333 883.485L151.557 883.791Z" fill="#F28E8F" fill-opacity="0.56"/>
<path d="M159.005 880.252L157.229 880.558L157.591 882L159.367 881.694L159.005 880.252Z" fill="#F28E8F" fill-opacity="0.56"/>
<path d="M188.851 877.37L188.489 875.928L186.713 876.234L187.075 877.676L185.299 877.982L185.661 879.424L187.437 879.118L187.799 880.56L189.575 880.254L189.213 878.812L190.989 878.507L190.627 877.064L188.851 877.37Z" fill="#F28E8F" fill-opacity="0.56"/>
<path d="M192.385 873.001L190.609 873.306L190.971 874.748L192.747 874.443L192.385 873.001Z" fill="#F28E8F" fill-opacity="0.56"/>
<path d="M196.1 869.352L194.324 869.658L194.687 871.1L196.463 870.794L196.1 869.352Z" fill="#F28E8F" fill-opacity="0.56"/>
<path d="M163.089 841.185L162.727 839.743L160.951 840.049L161.313 841.491L159.537 841.797L159.899 843.239L161.675 842.933L162.037 844.375L163.813 844.069L163.451 842.627L165.227 842.322L164.865 840.879L163.089 841.185Z" fill="#F28E8F" fill-opacity="0.56"/>
<path d="M157.399 840.66L155.623 840.966L155.985 842.408L157.761 842.102L157.399 840.66Z" fill="#F28E8F" fill-opacity="0.56"/>
</g>
<g clip-path="url(#clip8)">
<path d="M68.5624 835.339C68.8615 831.425 67.0731 827.616 63.7013 824.988C57.7362 820.489 48.6236 821.015 43.3479 826.163C42.467 827.023 41.7281 827.982 41.1522 829.014C40.905 829.456 40.2889 829.644 39.776 829.434C39.5121 829.326 39.3148 829.127 39.2334 828.885C37.0311 822.326 29.0419 818.574 21.3891 820.503C19.0426 821.095 16.9059 822.188 15.1796 823.679C7.73703 830.096 10.7796 841.565 15.3148 847.658C23.8675 859.164 41.7057 862.483 55.1575 855.072C57.7855 853.624 60.1258 851.822 62.0876 849.736C65.9477 845.63 68.213 840.594 68.5624 835.339ZM13.6501 836.044L11.5957 835.906L11.7684 834.142L13.8228 834.279L13.6501 836.044ZM54.2376 822.781L56.292 822.919L56.1193 824.683L54.0649 824.545L54.2376 822.781ZM42.1527 840.62L44.2071 840.758L44.0345 842.523L41.9801 842.385L42.1527 840.62ZM39.9344 831.59L41.9888 831.728L41.8161 833.493L39.7617 833.355L39.9344 831.59V831.59ZM36.2485 837.56L38.3029 837.698L38.1303 839.462L36.0759 839.324L36.2485 837.56ZM26.5032 820.921L28.5576 821.058L28.385 822.823L26.3306 822.685L26.5032 820.921ZM16.8268 824.712L16.9994 822.947L19.0538 823.085L18.8812 824.85L16.8268 824.712ZM24.3363 853.635L22.2819 853.497L22.4546 851.732L24.509 851.87L24.3363 853.635ZM26.8223 849.361L24.7679 849.223L24.9406 847.458L26.995 847.596L26.8223 849.361ZM29.1938 840.468C27.1531 842.212 25.1087 843.954 23.0609 845.694C22.659 846.038 22.0103 846.039 21.6119 845.696C21.5247 845.621 21.4544 845.533 21.4039 845.436C19.4849 841.801 16.8701 836.823 17.1549 832.137C17.2837 830.193 18.3192 828.372 20.0274 827.084C21.6842 825.818 23.8677 825.185 26.0716 825.332C31.0812 825.668 33.2085 829.108 33.5279 832.216C33.6342 833.26 33.5573 834.314 33.2997 835.341C32.788 837.401 31.222 838.738 29.4038 840.286L29.1938 840.468ZM38.3718 858.128L36.3174 857.991L36.49 856.226L38.5444 856.364L38.3718 858.128ZM37.7762 853.648C32.4009 853.287 30.6729 852.275 30.9311 849.636C31.2649 846.225 34.7547 843.676 38.7258 843.943C42.697 844.209 45.6457 847.19 45.3119 850.601C45.0537 853.24 43.1516 854.009 37.7762 853.648ZM53.2705 853.799L51.2161 853.661L51.3888 851.897L53.4432 852.035L53.2705 853.799ZM55.6828 848.082C55.4884 848.278 55.1993 848.386 54.9004 848.375C54.5786 848.363 54.2809 848.228 54.0885 848.007L49.1583 842.189C47.2942 840.021 45.6849 838.155 45.7246 835.489C45.7324 834.658 45.8446 833.831 46.0592 833.02C46.4125 831.552 47.2747 830.207 48.5324 829.163C50.2332 827.798 52.5202 827.108 54.8332 827.261C56.9841 827.402 58.9739 828.279 60.3551 829.695C61.818 831.204 62.5221 833.152 62.3137 835.113C61.6679 839.902 59.3571 844.421 55.6828 848.082ZM67.0645 839.627L65.0101 839.489L65.1827 837.724L67.2371 837.862L67.0645 839.627Z" fill="#F28E8F" fill-opacity="0.56"/>
<path d="M10.2057 860.68L10.3783 858.915L8.32393 858.777L8.15127 860.542L6.09688 860.404L5.92422 862.169L7.97862 862.306L7.80597 864.071L9.86036 864.209L10.033 862.444L12.0874 862.582L12.2601 860.817L10.2057 860.68Z" fill="#F28E8F" fill-opacity="0.56"/>
<path d="M19.7094 858.653L17.655 858.515L17.4824 860.28L19.5368 860.417L19.7094 858.653Z" fill="#F28E8F" fill-opacity="0.56"/>
<path d="M53.348 863.573L53.5207 861.809L51.4663 861.671L51.2936 863.435L49.2392 863.298L49.0666 865.062L51.121 865.2L50.9483 866.965L53.0027 867.102L53.1754 865.338L55.2298 865.476L55.4024 863.711L53.348 863.573Z" fill="#F28E8F" fill-opacity="0.56"/>
<path d="M58.9157 859.506L56.8613 859.369L56.6887 861.133L58.7431 861.271L58.9157 859.506Z" fill="#F28E8F" fill-opacity="0.56"/>
<path d="M64.3969 856.322L62.3425 856.184L62.1699 857.948L64.2243 858.086L64.3969 856.322Z" fill="#F28E8F" fill-opacity="0.56"/>
<path d="M39.5201 814.689L39.6928 812.924L37.6384 812.786L37.4657 814.551L35.4113 814.413L35.2387 816.178L37.2931 816.316L37.1204 818.08L39.1748 818.218L39.3475 816.453L41.4019 816.591L41.5745 814.827L39.5201 814.689Z" fill="#F28E8F" fill-opacity="0.56"/>
<path d="M33.5297 812.511L31.4753 812.373L31.3027 814.138L33.3571 814.275L33.5297 812.511Z" fill="#F28E8F" fill-opacity="0.56"/>
</g>
<g clip-path="url(#clip9)">
<path d="M403.671 695.328C402.925 691.455 400.172 688.064 396.186 686.113C389.174 682.807 380.422 684.975 376.639 690.956C376.008 691.955 375.541 693.025 375.252 694.136C375.128 694.612 374.577 694.907 374.021 694.796C373.735 694.738 373.49 694.58 373.346 694.359C369.46 688.36 360.671 686.15 353.716 689.422C351.583 690.426 349.788 691.88 348.499 693.648C342.938 701.261 348.945 711.898 354.984 717.019C366.377 726.691 384.66 726.689 395.821 717.015C398.001 715.126 399.807 712.942 401.168 710.551C403.847 705.844 404.722 700.518 403.671 695.328ZM350.283 705.99L348.242 706.229L347.943 704.476L349.984 704.237L350.283 705.99ZM386.367 685.678L388.408 685.439L388.707 687.192L386.667 687.431L386.367 685.678ZM379.304 705.278L381.345 705.039L381.644 706.792L379.603 707.031L379.304 705.278ZM374.747 696.871L376.788 696.632L377.087 698.385L375.046 698.624L374.747 696.871V696.871ZM372.732 703.364L374.773 703.126L375.072 704.879L373.032 705.117L372.732 703.364ZM358.816 688.9L360.857 688.662L361.156 690.415L359.115 690.653L358.816 688.9ZM350.38 694.357L350.081 692.604L352.121 692.365L352.421 694.118L350.38 694.357ZM365.37 721.211L363.329 721.45L363.03 719.697L365.071 719.458L365.37 721.211ZM366.663 716.59L364.622 716.829L364.323 715.076L366.364 714.837L366.663 716.59ZM366.62 707.483C365.091 709.556 363.558 711.627 362.021 713.696C361.72 714.104 361.088 714.223 360.608 713.961C360.503 713.903 360.411 713.83 360.336 713.745C357.501 710.547 353.631 706.165 352.667 701.542C352.278 699.622 352.805 697.657 354.131 696.09C355.412 694.554 357.374 693.54 359.564 693.283C364.54 692.701 367.527 695.671 368.662 698.645C369.043 699.645 369.247 700.686 369.268 701.735C369.314 703.838 368.141 705.427 366.777 707.268L366.62 707.483ZM380.254 723.046L378.213 723.285L377.914 721.532L379.955 721.293L380.254 723.046ZM378.486 718.783C373.146 719.408 371.192 718.734 370.744 716.113C370.166 712.724 372.896 709.603 376.841 709.142C380.786 708.68 384.452 711.053 385.031 714.442C385.478 717.063 383.826 718.158 378.486 718.783ZM393.643 716.116L391.602 716.355L391.303 714.602L393.344 714.363L393.643 716.116ZM394.481 710.1C394.344 710.327 394.09 710.485 393.795 710.528C393.478 710.575 393.152 710.497 392.906 710.316L386.554 705.535C384.161 703.759 382.097 702.231 381.429 699.622C381.217 698.811 381.107 697.983 381.101 697.153C381.057 695.656 381.542 694.188 382.492 692.941C383.79 691.3 385.838 690.212 388.136 689.941C390.271 689.687 392.445 690.182 394.168 691.313C395.995 692.519 397.198 694.291 397.514 696.242C398.153 701.032 397.096 705.861 394.481 710.1ZM403.345 699.784L401.305 700.022L401.005 698.269L403.046 698.031L403.345 699.784Z" fill="#F28E8F" fill-opacity="0.56"/>
<path d="M353.45 730.651L353.151 728.898L351.11 729.137L351.409 730.89L349.368 731.129L349.667 732.882L351.708 732.643L352.007 734.396L354.048 734.157L353.749 732.404L355.79 732.165L355.491 730.412L353.45 730.651Z" fill="#F28E8F" fill-opacity="0.56"/>
<path d="M362.185 726.947L360.144 727.186L360.443 728.939L362.484 728.7L362.185 726.947Z" fill="#F28E8F" fill-opacity="0.56"/>
<path d="M396.308 725.638L396.009 723.885L393.968 724.124L394.267 725.877L392.226 726.116L392.525 727.869L394.566 727.63L394.865 729.383L396.906 729.144L396.607 727.391L398.648 727.152L398.349 725.4L396.308 725.638Z" fill="#F28E8F" fill-opacity="0.56"/>
<path d="M400.662 720.659L398.622 720.898L398.921 722.651L400.962 722.412L400.662 720.659Z" fill="#F28E8F" fill-opacity="0.56"/>
<path d="M405.166 716.556L403.125 716.795L403.425 718.548L405.465 718.309L405.166 716.556Z" fill="#F28E8F" fill-opacity="0.56"/>
<path d="M369.864 680.456L369.565 678.703L367.525 678.942L367.824 680.695L365.783 680.934L366.082 682.687L368.123 682.448L368.422 684.201L370.463 683.962L370.164 682.209L372.204 681.97L371.905 680.217L369.864 680.456Z" fill="#F28E8F" fill-opacity="0.56"/>
<path d="M363.443 679.419L361.402 679.658L361.701 681.411L363.742 681.172L363.443 679.419Z" fill="#F28E8F" fill-opacity="0.56"/>
</g>
<g clip-path="url(#clip10)">
<path d="M112.671 936.328C111.925 932.455 109.172 929.064 105.186 927.113C98.1737 923.807 89.4225 925.975 85.6393 931.956C85.0076 932.955 84.5409 934.025 84.2524 935.136C84.1283 935.612 83.5769 935.907 83.021 935.796C82.7349 935.738 82.4896 935.58 82.3462 935.359C78.4598 929.36 69.6708 927.15 62.7157 930.422C60.5831 931.426 58.788 932.88 57.4989 934.648C51.9379 942.261 57.9451 952.898 63.9844 958.019C75.3772 967.691 93.6603 967.689 104.821 958.015C107.001 956.126 108.807 953.942 110.168 951.551C112.847 946.844 113.722 941.518 112.671 936.328ZM59.283 946.99L57.2421 947.229L56.943 945.476L58.9839 945.237L59.283 946.99ZM95.3674 926.678L97.4083 926.439L97.7074 928.192L95.6666 928.431L95.3674 926.678ZM88.3037 946.278L90.3446 946.039L90.6437 947.792L88.6028 948.031L88.3037 946.278ZM83.7469 937.871L85.7878 937.632L86.0869 939.385L84.046 939.624L83.7469 937.871V937.871ZM81.7325 944.364L83.7733 944.126L84.0724 945.879L82.0316 946.117L81.7325 944.364ZM67.8158 929.9L69.8567 929.662L70.1558 931.415L68.1149 931.653L67.8158 929.9ZM59.3797 935.357L59.0806 933.604L61.1214 933.365L61.4205 935.118L59.3797 935.357ZM74.3696 962.211L72.3288 962.45L72.0297 960.697L74.0705 960.458L74.3696 962.211ZM75.6627 957.59L73.6219 957.829L73.3228 956.076L75.3636 955.837L75.6627 957.59ZM75.62 948.483C74.0913 950.556 72.5583 952.627 71.0213 954.696C70.7204 955.104 70.0877 955.223 69.6081 954.961C69.5032 954.903 69.4113 954.83 69.3364 954.745C66.501 951.547 62.6309 947.165 61.6672 942.542C61.2778 940.622 61.8054 938.657 63.1308 937.09C64.4118 935.554 66.3743 934.54 68.5636 934.283C73.5402 933.701 76.5272 936.671 77.6622 939.645C78.0426 940.645 78.2468 941.686 78.2675 942.735C78.314 944.838 77.1406 946.427 75.7769 948.268L75.62 948.483ZM89.2539 964.046L87.213 964.285L86.9139 962.532L88.9548 962.293L89.2539 964.046ZM87.4857 959.783C82.1458 960.408 80.1918 959.734 79.7445 957.113C79.1663 953.724 81.8956 950.603 85.8406 950.142C89.7856 949.68 93.4523 952.053 94.0305 955.442C94.4778 958.063 92.8256 959.158 87.4857 959.783ZM102.643 957.116L100.602 957.355L100.303 955.602L102.344 955.363L102.643 957.116ZM103.481 951.1C103.344 951.327 103.09 951.485 102.795 951.528C102.478 951.575 102.152 951.497 101.906 951.316L95.5542 946.535C93.1612 944.759 91.0968 943.231 90.4289 940.622C90.2165 939.811 90.1066 938.983 90.1012 938.153C90.0569 936.656 90.5418 935.188 91.4922 933.941C92.79 932.3 94.8385 931.212 97.1356 930.941C99.2714 930.687 101.445 931.182 103.168 932.313C104.995 933.519 106.198 935.291 106.514 937.242C107.153 942.032 106.096 946.861 103.481 951.1ZM112.345 940.784L110.305 941.022L110.005 939.269L112.046 939.031L112.345 940.784Z" fill="#F28E8F" fill-opacity="0.56"/>
<path d="M62.4499 971.651L62.1508 969.898L60.11 970.137L60.4091 971.89L58.3682 972.129L58.6673 973.882L60.7082 973.643L61.0073 975.396L63.0481 975.157L62.749 973.404L64.7899 973.165L64.4908 971.412L62.4499 971.651Z" fill="#F28E8F" fill-opacity="0.56"/>
<path d="M71.1852 967.947L69.1443 968.186L69.4434 969.939L71.4843 969.7L71.1852 967.947Z" fill="#F28E8F" fill-opacity="0.56"/>
<path d="M105.308 966.638L105.009 964.885L102.968 965.124L103.267 966.877L101.226 967.116L101.525 968.869L103.566 968.63L103.865 970.383L105.906 970.144L105.607 968.391L107.648 968.152L107.349 966.4L105.308 966.638Z" fill="#F28E8F" fill-opacity="0.56"/>
<path d="M109.662 961.659L107.622 961.898L107.921 963.651L109.962 963.412L109.662 961.659Z" fill="#F28E8F" fill-opacity="0.56"/>
<path d="M114.166 957.556L112.125 957.795L112.425 959.548L114.465 959.309L114.166 957.556Z" fill="#F28E8F" fill-opacity="0.56"/>
<path d="M78.8645 921.456L78.5654 919.703L76.5245 919.942L76.8236 921.695L74.7827 921.934L75.0818 923.687L77.1227 923.448L77.4218 925.201L79.4627 924.962L79.1636 923.209L81.2044 922.97L80.9053 921.217L78.8645 921.456Z" fill="#F28E8F" fill-opacity="0.56"/>
<path d="M72.4427 920.419L70.4019 920.658L70.701 922.411L72.7418 922.172L72.4427 920.419Z" fill="#F28E8F" fill-opacity="0.56"/>
</g>
<path d="M211.869 283.239L211.924 281.608L210.515 281.337L210.46 282.968L209.051 282.697L208.996 284.328L210.405 284.599L210.35 286.23L211.759 286.5L211.814 284.869L213.222 285.14L213.278 283.509L211.869 283.239Z" fill="#F28E8F" fill-opacity="0.56"/>
<path d="M218.117 281.213L216.708 280.942L216.653 282.573L218.062 282.844L218.117 281.213Z" fill="#F28E8F" fill-opacity="0.56"/>
<path d="M240.233 286.001L240.346 284.236L238.996 284.098L238.882 285.863L237.532 285.725L237.418 287.49L238.769 287.627L238.655 289.392L240.006 289.53L240.119 287.765L241.47 287.903L241.584 286.138L240.233 286.001Z" fill="#F28E8F" fill-opacity="0.56"/>
<path d="M243.894 282.066L242.485 281.796L242.43 283.426L243.839 283.697L243.894 282.066Z" fill="#F28E8F" fill-opacity="0.56"/>
<path d="M237.326 450.729L237.381 449.099L235.972 448.828L235.917 450.459L234.508 450.188L234.453 451.819L235.862 452.09L235.807 453.72L237.216 453.991L237.271 452.36L238.68 452.631L238.735 451L237.326 450.729Z" fill="#F28E8F" fill-opacity="0.56"/>
<path d="M243.574 448.704L242.165 448.433L242.11 450.064L243.519 450.335L243.574 448.704Z" fill="#F28E8F" fill-opacity="0.56"/>
<path d="M265.69 453.491L265.803 451.727L264.453 451.589L264.339 453.354L262.989 453.216L262.875 454.981L264.226 455.118L264.112 456.883L265.463 457.021L265.576 455.256L266.927 455.394L267.041 453.629L265.69 453.491Z" fill="#F28E8F" fill-opacity="0.56"/>
<path d="M269.351 449.557L267.942 449.287L267.887 450.917L269.296 451.188L269.351 449.557Z" fill="#F28E8F" fill-opacity="0.56"/>
<path d="M73.5753 598.024L73.6304 596.394L72.2216 596.123L72.1665 597.754L70.7576 597.483L70.7026 599.114L72.1114 599.385L72.0563 601.015L73.4651 601.286L73.5202 599.655L74.929 599.926L74.9841 598.295L73.5753 598.024Z" fill="#F28E8F" fill-opacity="0.56"/>
<path d="M79.8234 595.998L78.4146 595.728L78.3595 597.359L79.7683 597.629L79.8234 595.998Z" fill="#F28E8F" fill-opacity="0.56"/>
<path d="M101.939 600.786L102.053 599.022L100.702 598.884L100.589 600.648L99.238 600.511L99.1245 602.275L100.475 602.413L100.362 604.178L101.712 604.315L101.826 602.551L103.177 602.689L103.29 600.924L101.939 600.786Z" fill="#F28E8F" fill-opacity="0.56"/>
<path d="M105.6 596.852L104.191 596.581L104.136 598.212L105.545 598.483L105.6 596.852Z" fill="#F28E8F" fill-opacity="0.56"/>
<path d="M191.916 533.908L191.971 532.277L190.562 532.006L190.507 533.637L189.098 533.367L189.043 534.997L190.452 535.268L190.397 536.899L191.806 537.169L191.861 535.539L193.27 535.809L193.325 534.178L191.916 533.908Z" fill="#F28E8F" fill-opacity="0.56"/>
<path d="M198.164 531.882L196.755 531.611L196.7 533.242L198.109 533.513L198.164 531.882Z" fill="#F28E8F" fill-opacity="0.56"/>
<path d="M220.28 536.67L220.394 534.905L219.043 534.767L218.93 536.532L217.579 536.394L217.465 538.159L218.816 538.296L218.703 540.061L220.053 540.199L220.167 538.434L221.517 538.572L221.631 536.807L220.28 536.67Z" fill="#F28E8F" fill-opacity="0.56"/>
<path d="M223.941 532.735L222.532 532.465L222.477 534.096L223.886 534.366L223.941 532.735Z" fill="#F28E8F" fill-opacity="0.56"/>
<path d="M152.699 634.798L152.754 633.167L151.345 632.897L151.29 634.528L149.881 634.257L149.826 635.888L151.235 636.158L151.18 637.789L152.588 638.06L152.644 636.429L154.052 636.7L154.107 635.069L152.699 634.798Z" fill="#F28E8F" fill-opacity="0.56"/>
<path d="M158.946 632.772L157.537 632.502L157.482 634.133L158.891 634.403L158.946 632.772Z" fill="#F28E8F" fill-opacity="0.56"/>
<path d="M181.063 637.56L181.176 635.796L179.826 635.658L179.712 637.422L178.361 637.285L178.248 639.049L179.599 639.187L179.485 640.952L180.836 641.089L180.949 639.325L182.3 639.463L182.413 637.698L181.063 637.56Z" fill="#F28E8F" fill-opacity="0.56"/>
<path d="M184.724 633.626L183.315 633.355L183.26 634.986L184.668 635.257L184.724 633.626Z" fill="#F28E8F" fill-opacity="0.56"/>
<path d="M44.6781 698.531L44.7332 696.9L43.3244 696.63L43.2693 698.261L41.8604 697.99L41.8053 699.621L43.2142 699.891L43.1591 701.522L44.5679 701.793L44.623 700.162L46.0318 700.433L46.0869 698.802L44.6781 698.531Z" fill="#F28E8F" fill-opacity="0.56"/>
<path d="M50.9259 696.505L49.5171 696.235L49.462 697.866L50.8708 698.136L50.9259 696.505Z" fill="#F28E8F" fill-opacity="0.56"/>
<path d="M73.0423 701.293L73.1558 699.529L71.8051 699.391L71.6915 701.155L70.3408 701.018L70.2273 702.782L71.578 702.92L71.4645 704.685L72.8152 704.822L72.9288 703.058L74.2795 703.196L74.393 701.431L73.0423 701.293Z" fill="#F28E8F" fill-opacity="0.56"/>
<path d="M76.703 697.359L75.2942 697.088L75.2391 698.719L76.6479 698.99L76.703 697.359Z" fill="#F28E8F" fill-opacity="0.56"/>
<path d="M250.398 630.082L250.453 628.452L249.045 628.181L248.989 629.812L247.581 629.541L247.526 631.172L248.934 631.443L248.879 633.073L250.288 633.344L250.343 631.713L251.752 631.984L251.807 630.353L250.398 630.082Z" fill="#F28E8F" fill-opacity="0.56"/>
<path d="M256.646 628.057L255.238 627.786L255.182 629.417L256.591 629.688L256.646 628.057Z" fill="#F28E8F" fill-opacity="0.56"/>
<path d="M278.762 632.844L278.876 631.08L277.525 630.942L277.412 632.707L276.061 632.569L275.948 634.333L277.298 634.471L277.185 636.236L278.535 636.374L278.649 634.609L280 634.747L280.113 632.982L278.762 632.844Z" fill="#F28E8F" fill-opacity="0.56"/>
<path d="M282.423 628.91L281.015 628.64L280.96 630.27L282.368 630.541L282.423 628.91Z" fill="#F28E8F" fill-opacity="0.56"/>
<path d="M72.1993 799.905L72.2544 798.274L70.8456 798.003L70.7905 799.634L69.3817 799.363L69.3266 800.994L70.7354 801.265L70.6803 802.896L72.0891 803.166L72.1442 801.536L73.5531 801.806L73.6082 800.175L72.1993 799.905Z" fill="#F28E8F" fill-opacity="0.56"/>
<path d="M78.4472 797.879L77.0383 797.608L76.9832 799.239L78.3921 799.51L78.4472 797.879Z" fill="#F28E8F" fill-opacity="0.56"/>
<path d="M100.564 802.667L100.677 800.902L99.3263 800.764L99.2128 802.529L97.8621 802.391L97.7486 804.156L99.0993 804.293L98.9858 806.058L100.336 806.196L100.45 804.431L101.801 804.569L101.914 802.804L100.564 802.667Z" fill="#F28E8F" fill-opacity="0.56"/>
<path d="M104.224 798.732L102.815 798.462L102.76 800.092L104.169 800.363L104.224 798.732Z" fill="#F28E8F" fill-opacity="0.56"/>
<path d="M252.463 804.237L252.518 802.606L251.109 802.335L251.054 803.966L249.645 803.696L249.59 805.326L250.999 805.597L250.943 807.228L252.352 807.498L252.407 805.868L253.816 806.138L253.871 804.507L252.463 804.237Z" fill="#F28E8F" fill-opacity="0.56"/>
<path d="M258.71 802.211L257.302 801.94L257.246 803.571L258.655 803.842L258.71 802.211Z" fill="#F28E8F" fill-opacity="0.56"/>
<path d="M280.827 806.999L280.94 805.234L279.589 805.096L279.476 806.861L278.125 806.723L278.012 808.488L279.362 808.626L279.249 810.39L280.6 810.528L280.713 808.763L282.064 808.901L282.177 807.137L280.827 806.999Z" fill="#F28E8F" fill-opacity="0.56"/>
<path d="M284.487 803.065L283.079 802.794L283.024 804.425L284.432 804.695L284.487 803.065Z" fill="#F28E8F" fill-opacity="0.56"/>
<path d="M161.643 683.802L161.698 682.171L160.289 681.9L160.234 683.531L158.825 683.261L158.77 684.891L160.179 685.162L160.124 686.793L161.533 687.063L161.588 685.433L162.997 685.703L163.052 684.072L161.643 683.802Z" fill="#F28E8F" fill-opacity="0.56"/>
<path d="M167.891 681.776L166.482 681.505L166.427 683.136L167.836 683.407L167.891 681.776Z" fill="#F28E8F" fill-opacity="0.56"/>
<path d="M190.007 686.564L190.12 684.799L188.77 684.661L188.656 686.426L187.305 686.288L187.192 688.053L188.543 688.19L188.429 689.955L189.78 690.093L189.893 688.328L191.244 688.466L191.358 686.701L190.007 686.564Z" fill="#F28E8F" fill-opacity="0.56"/>
<path d="M193.668 682.63L192.259 682.359L192.204 683.99L193.613 684.26L193.668 682.63Z" fill="#F28E8F" fill-opacity="0.56"/>
<path d="M213.4 126.844L213.513 125.079L212.163 124.941L212.049 126.706L210.698 126.568L210.585 128.333L211.936 128.471L211.822 130.235L213.173 130.373L213.286 128.608L214.637 128.746L214.751 126.982L213.4 126.844Z" fill="#F28E8F" fill-opacity="0.56"/>
<path d="M142.378 345.89L142.433 344.26L141.024 343.989L140.969 345.62L139.56 345.349L139.505 346.98L140.914 347.25L140.859 348.881L142.268 349.152L142.323 347.521L143.732 347.792L143.787 346.161L142.378 345.89Z" fill="#F28E8F" fill-opacity="0.56"/>
<path d="M148.626 343.865L147.217 343.594L147.162 345.225L148.571 345.495L148.626 343.865Z" fill="#F28E8F" fill-opacity="0.56"/>
<path d="M170.742 348.652L170.856 346.888L169.505 346.75L169.391 348.514L168.041 348.377L167.927 350.141L169.278 350.279L169.164 352.044L170.515 352.181L170.629 350.417L171.979 350.555L172.093 348.79L170.742 348.652Z" fill="#F28E8F" fill-opacity="0.56"/>
<path d="M174.403 344.718L172.994 344.448L172.939 346.078L174.348 346.349L174.403 344.718Z" fill="#F28E8F" fill-opacity="0.56"/>
<path d="M247.498 278.882L246.089 278.611L246.034 280.242L247.443 280.512L247.498 278.882Z" fill="#F28E8F" fill-opacity="0.56"/>
<g clip-path="url(#clip11)">
<path d="M220.654 33.932C219.78 30.7501 217.172 28.0749 213.566 26.6613C207.229 24.2805 199.679 26.5435 196.703 31.716C196.206 32.5797 195.857 33.4942 195.668 34.4335C195.586 34.8357 195.12 35.1102 194.626 35.0468C194.372 35.0142 194.147 34.895 194.009 34.7191C190.259 29.9343 182.427 28.558 176.515 31.645C174.702 32.5915 173.211 33.8951 172.182 35.4335C167.739 42.0566 173.613 50.5867 179.2 54.5285C189.741 61.973 205.772 61.011 215.007 52.3799C216.811 50.6938 218.27 48.7833 219.327 46.7226C221.407 42.6675 221.872 38.1928 220.654 33.932ZM174.449 45.6036L172.673 45.9093L172.311 44.4672L174.087 44.1615L174.449 45.6036ZM204.932 26.8155L206.708 26.5098L207.07 27.9519L205.294 28.2576L204.932 26.8155ZM199.855 43.4863L201.631 43.1806L201.993 44.6227L200.217 44.9284L199.855 43.4863ZM195.38 36.7344L197.156 36.4287L197.519 37.8708L195.743 38.1765L195.38 36.7344V36.7344ZM193.984 42.2404L195.76 41.9346L196.122 43.3767L194.346 43.6825L193.984 42.2404ZM180.957 30.9431L182.733 30.6373L183.095 32.0794L181.319 32.3852L180.957 30.9431ZM173.871 35.9242L173.509 34.4821L175.285 34.1763L175.647 35.6184L173.871 35.9242ZM188.545 57.4691L186.77 57.7748L186.407 56.3327L188.183 56.027L188.545 57.4691ZM189.416 53.5581L187.64 53.8638L187.278 52.4217L189.054 52.116L189.416 53.5581ZM188.859 45.9864C187.637 47.7906 186.411 49.5934 185.181 51.3948C184.941 51.7505 184.393 51.8825 183.957 51.6895C183.862 51.6473 183.777 51.5914 183.707 51.5246C181.038 49.0142 177.395 45.5734 176.286 41.7789C175.836 40.203 176.186 38.5408 177.259 37.1681C178.295 35.8233 179.958 34.8769 181.863 34.5483C186.193 33.8028 188.982 36.1157 190.146 38.5292C190.537 39.3407 190.775 40.1964 190.853 41.0674C191.014 42.8135 190.075 44.1966 188.985 45.7994L188.859 45.9864ZM201.701 58.2131L199.925 58.5188L199.563 57.0767L201.339 56.771L201.701 58.2131ZM199.908 54.7607C195.261 55.5607 193.509 55.1032 192.968 52.9466C192.268 50.159 194.483 47.4201 197.916 46.8291C201.348 46.2381 204.699 48.0188 205.399 50.8064C205.941 52.963 204.554 53.9607 199.908 54.7607ZM213.046 51.7465L211.27 52.0523L210.908 50.6102L212.684 50.3044L213.046 51.7465ZM213.438 46.6992C213.331 46.8952 213.117 47.04 212.861 47.0912C212.586 47.1466 212.295 47.0992 212.069 46.962L206.227 43.3197C204.028 41.9683 202.131 40.8063 201.396 38.6715C201.164 38.0078 201.02 37.3251 200.968 36.6352C200.844 35.3928 201.186 34.146 201.948 33.059C202.992 31.6268 204.726 30.6137 206.725 30.2679C208.583 29.9447 210.518 30.2416 212.093 31.092C213.763 31.9988 214.919 33.4095 215.308 35.0157C216.141 38.9655 215.49 43.0369 213.438 46.6992ZM220.623 37.6542L218.847 37.9599L218.485 36.5178L220.261 36.2121L220.623 37.6542Z" fill="#F28E8F" fill-opacity="0.56"/>
<path d="M178.632 65.9458L178.27 64.5037L176.494 64.8095L176.856 66.2516L175.08 66.5573L175.442 67.9994L177.218 67.6937L177.58 69.1358L179.356 68.83L178.994 67.3879L180.77 67.0822L180.408 65.6401L178.632 65.9458Z" fill="#F28E8F" fill-opacity="0.56"/>
<path d="M186.08 62.4068L184.304 62.7125L184.666 64.1546L186.442 63.8489L186.08 62.4068Z" fill="#F28E8F" fill-opacity="0.56"/>
<path d="M215.926 59.5252L215.564 58.0831L213.788 58.3888L214.15 59.8309L212.374 60.1367L212.736 61.5788L214.512 61.273L214.874 62.7151L216.65 62.4094L216.288 60.9673L218.064 60.6615L217.702 59.2194L215.926 59.5252Z" fill="#F28E8F" fill-opacity="0.56"/>
<path d="M219.46 55.1556L217.684 55.4613L218.046 56.9034L219.822 56.5977L219.46 55.1556Z" fill="#F28E8F" fill-opacity="0.56"/>
<path d="M223.175 51.507L221.399 51.8127L221.762 53.2548L223.537 52.9491L223.175 51.507Z" fill="#F28E8F" fill-opacity="0.56"/>
<path d="M190.164 23.3401L189.802 21.898L188.026 22.2038L188.388 23.6459L186.612 23.9516L186.974 25.3937L188.75 25.088L189.112 26.5301L190.888 26.2243L190.526 24.7822L192.302 24.4765L191.94 23.0344L190.164 23.3401Z" fill="#F28E8F" fill-opacity="0.56"/>
<path d="M184.474 22.8152L182.698 23.121L183.06 24.5631L184.836 24.2573L184.474 22.8152Z" fill="#F28E8F" fill-opacity="0.56"/>
</g>
<g clip-path="url(#clip12)">
<path d="M413.142 98.4508C414.618 95.425 414.321 91.9959 412.334 89.1309C408.773 84.1812 401.014 82.4712 395.004 85.3117C394 85.786 393.084 86.3722 392.281 87.0539C391.936 87.3455 391.364 87.3503 391.002 87.0649C390.816 86.9181 390.714 86.7143 390.722 86.5045C390.942 80.8037 385.459 75.9719 378.477 75.7125C376.336 75.633 374.213 75.9986 372.307 76.7752C364.094 80.114 363.036 89.8937 364.906 95.7709C368.428 106.865 382.254 113.652 395.787 110.929C398.431 110.397 400.946 109.518 403.235 108.326C407.738 105.979 411.204 102.525 413.142 98.4508ZM367.158 86.1975L365.489 85.6092L366.186 84.254L367.855 84.8422L367.158 86.1975ZM405.139 85.1771L406.808 85.7654L406.111 87.1206L404.442 86.5324L405.139 85.1771ZM389.478 96.466L391.147 97.0542L390.45 98.4095L388.781 97.8212L389.478 96.466ZM390.458 88.8073L392.127 89.3956L391.431 90.7508L389.762 90.1626L390.458 88.8073V88.8073ZM385.516 92.6683L387.185 93.2566L386.488 94.6118L384.819 94.0236L385.516 92.6683ZM382.608 77.2356L384.277 77.8239L383.58 79.1791L381.911 78.5909L382.608 77.2356ZM373.356 77.9766L374.053 76.6214L375.722 77.2096L375.025 78.5649L373.356 77.9766ZM370.552 102.602L368.883 102.014L369.579 100.658L371.248 101.247L370.552 102.602ZM373.963 99.8021L372.294 99.2138L372.99 97.8585L374.659 98.4468L373.963 99.8021ZM378.726 93.3221C376.478 94.2258 374.229 95.1265 371.977 96.0245C371.534 96.2028 370.993 96.0522 370.769 95.688C370.719 95.6083 370.688 95.5223 370.677 95.4341C370.216 92.1118 369.597 87.5648 371.303 83.9253C372.019 82.4182 373.453 81.2192 375.28 80.5991C377.058 79.9843 379.076 79.9932 380.866 80.6238C384.936 82.0582 385.631 85.2752 384.923 87.8073C384.685 88.6582 384.29 89.4734 383.754 90.2254C382.682 91.735 380.958 92.4272 378.957 93.2277L378.726 93.3221ZM380.84 109.43L379.172 108.842L379.868 107.487L381.537 108.075L380.84 109.43ZM381.748 105.748C377.381 104.209 376.258 103.005 377.3 100.979C378.647 98.3589 382.355 97.157 385.581 98.2941C388.807 99.4312 390.33 102.477 388.983 105.096C387.941 107.123 386.115 107.287 381.748 105.748ZM394.614 109.482L392.945 108.894L393.641 107.539L395.31 108.127L394.614 109.482ZM398.415 105.523C398.192 105.634 397.917 105.652 397.672 105.573C397.407 105.488 397.201 105.312 397.11 105.092L394.825 99.3408C393.95 97.1916 393.194 95.3409 394.062 93.241C394.329 92.5862 394.682 91.9577 395.115 91.3667C395.869 90.2879 397.009 89.4255 398.385 88.8933C400.23 88.211 402.352 88.1987 404.231 88.8594C405.98 89.4722 407.364 90.6301 408.071 92.0728C408.817 93.6069 408.794 95.3116 408.005 96.814C405.967 100.451 402.625 103.486 398.415 105.523ZM410.55 101.492L408.881 100.904L409.578 99.5487L411.247 100.137L410.55 101.492Z" fill="#F28E8F" fill-opacity="0.56"/>
<path d="M356.568 104.877L357.265 103.521L355.596 102.933L354.899 104.288L353.23 103.7L352.533 105.055L354.202 105.644L353.505 106.999L355.174 107.587L355.871 106.232L357.54 106.82L358.237 105.465L356.568 104.877Z" fill="#F28E8F" fill-opacity="0.56"/>
<path d="M365.123 105.491L363.454 104.903L362.758 106.258L364.426 106.846L365.123 105.491Z" fill="#F28E8F" fill-opacity="0.56"/>
<path d="M391.616 117.23L392.312 115.875L390.644 115.287L389.947 116.642L388.278 116.054L387.581 117.409L389.25 117.997L388.553 119.352L390.222 119.941L390.919 118.586L392.588 119.174L393.285 117.819L391.616 117.23Z" fill="#F28E8F" fill-opacity="0.56"/>
<path d="M397.53 115.313L395.861 114.724L395.164 116.08L396.833 116.668L397.53 115.313Z" fill="#F28E8F" fill-opacity="0.56"/>
<path d="M403.096 114.073L401.427 113.485L400.73 114.84L402.399 115.428L403.096 114.073Z" fill="#F28E8F" fill-opacity="0.56"/>
<path d="M395.409 75.3441L396.106 73.9889L394.437 73.4006L393.74 74.7559L392.071 74.1676L391.375 75.5229L393.044 76.1111L392.347 77.4664L394.016 78.0546L394.713 76.6994L396.381 77.2877L397.078 75.9324L395.409 75.3441Z" fill="#F28E8F" fill-opacity="0.56"/>
<path d="M391.099 72.2241L389.43 71.6359L388.734 72.9911L390.403 73.5794L391.099 72.2241Z" fill="#F28E8F" fill-opacity="0.56"/>
</g>
<path d="M64.8839 79.1026C64.9487 75.5518 63.6041 71.9568 61.2294 69.3318C57.0334 64.8253 50.8837 64.6908 47.4937 69.0317C46.9276 69.7564 46.4612 70.5818 46.1077 71.4843C45.9559 71.8705 45.5455 72.0004 45.1909 71.7746C45.0085 71.6584 44.868 71.4631 44.8043 71.2376C43.0829 65.1054 37.5431 61.1431 32.4308 62.3876C30.8633 62.7691 29.4554 63.6219 28.3394 64.866C23.5273 70.2187 25.9902 80.8867 29.2744 86.7517C35.4683 97.8246 47.6596 102.055 56.5044 96.2013C58.2323 95.0577 59.753 93.5715 61.0076 91.8004C63.476 88.3149 64.8322 83.8726 64.8839 79.1026ZM27.7391 76.0438L26.3436 75.7796L26.3984 74.1814L27.7939 74.4456L27.7391 76.0438ZM54.7458 66.6799L56.1413 66.9441L56.0865 68.5423L54.691 68.2781L54.7458 66.6799ZM47.1932 82.14L48.5886 82.4042L48.5338 84.0025L47.1384 83.7383L47.1932 82.14ZM45.374 73.7527L46.7694 74.0169L46.7146 75.6151L45.3192 75.3509L45.374 73.7527V73.7527ZM43.089 78.9501L44.4845 79.2143L44.4297 80.8125L43.0342 80.5483L43.089 78.9501ZM35.9072 63.113L37.3027 63.3773L37.2479 64.9755L35.8524 64.7113L35.9072 63.113ZM29.4907 65.9196L29.5455 64.3214L30.9409 64.5856L30.8861 66.1838L29.4907 65.9196ZM35.5912 92.8121L34.1957 92.5479L34.2505 90.9497L35.646 91.2139L35.5912 92.8121ZM37.1236 89.0808L35.7282 88.8165L35.783 87.2183L37.1784 87.4825L37.1236 89.0808ZM38.416 81.1273C37.096 82.5814 35.7735 84.0328 34.4485 85.4818C34.1886 85.7685 33.7495 85.7256 33.4678 85.3858C33.4062 85.3115 33.3555 85.2265 33.3179 85.135C31.891 81.6895 29.946 76.9716 29.974 72.7157C29.9928 70.9513 30.6296 69.3592 31.7406 68.2993C32.8175 67.2559 34.2732 66.8257 35.7702 67.1086C39.173 67.7528 40.734 71.0347 41.0595 73.8913C41.1682 74.8515 41.1532 75.8074 41.0149 76.7268C40.741 78.5715 39.7281 79.6859 38.5518 80.976L38.416 81.1273ZM45.2498 97.858L43.8543 97.5938L43.9091 95.9955L45.3046 96.2597L45.2498 97.858ZM44.689 93.7303C41.0378 93.039 39.8326 91.9993 39.9145 89.6092C40.0205 86.5198 42.293 84.4294 44.9904 84.9402C47.6878 85.4509 49.7886 88.3693 49.6827 91.4586C49.6008 93.8488 48.3402 94.4216 44.689 93.7303ZM55.1823 94.9128L53.7869 94.6486L53.8417 93.0504L55.2371 93.3146L55.1823 94.9128ZM56.614 89.8594C56.4894 90.0255 56.2975 90.1048 56.0947 90.074C55.8765 90.0412 55.6703 89.898 55.5323 89.6836L51.9903 84.0432C50.6523 81.94 49.4974 80.1296 49.4304 77.6993C49.4065 76.9423 49.4533 76.1947 49.5701 75.4697C49.7576 74.1539 50.2939 72.9852 51.1085 72.1175C52.2118 70.9873 53.7356 70.5119 55.3066 70.8075C56.7674 71.0806 58.1452 72.0149 59.1299 73.4006C60.1732 74.8752 60.7184 76.6996 60.6463 78.4748C60.3776 82.8005 58.9724 86.7678 56.614 89.8594ZM64.0208 82.9132L62.6254 82.649L62.6802 81.0508L64.0756 81.315L64.0208 82.9132Z" fill="#F28E8F" fill-opacity="0.56"/>
<path d="M26.1012 102.194L26.1563 100.563L24.7474 100.292L24.6924 101.923L23.2835 101.653L23.2284 103.283L24.6373 103.554L24.5822 105.185L25.991 105.455L26.0461 103.825L27.4549 104.095L27.51 102.465L26.1012 102.194Z" fill="#F28E8F" fill-opacity="0.56"/>
<path d="M32.349 100.168L30.9402 99.8975L30.8851 101.528L32.2939 101.799L32.349 100.168Z" fill="#F28E8F" fill-opacity="0.56"/>
<path d="M58.1264 101.022L56.7175 100.751L56.6624 102.382L58.0713 102.652L58.1264 101.022Z" fill="#F28E8F" fill-opacity="0.56"/>
<path d="M176.429 174.356L175.021 174.086L174.965 175.716L176.374 175.987L176.429 174.356Z" fill="#F28E8F" fill-opacity="0.56"/>
<g clip-path="url(#clip13)">
<path d="M159.282 150.901C158.407 147.719 155.799 145.044 152.193 143.631C145.856 141.25 138.307 143.513 135.33 148.685C134.833 149.549 134.485 150.464 134.296 151.403C134.214 151.805 133.747 152.08 133.253 152.016C132.999 151.984 132.775 151.864 132.637 151.688C128.887 146.904 121.055 145.527 115.143 148.614C113.33 149.561 111.839 150.864 110.809 152.403C106.367 159.026 112.241 167.556 117.828 171.498C128.369 178.942 144.4 177.98 153.635 169.349C155.439 167.663 156.898 165.753 157.955 163.692C160.035 159.637 160.499 155.162 159.282 150.901ZM113.077 162.573L111.301 162.879L110.939 161.437L112.715 161.131L113.077 162.573ZM143.56 143.785L145.335 143.479L145.698 144.921L143.922 145.227L143.56 143.785ZM138.483 160.456L140.259 160.15L140.621 161.592L138.845 161.898L138.483 160.456ZM134.008 153.704L135.784 153.398L136.146 154.84L134.37 155.146L134.008 153.704V153.704ZM132.612 159.21L134.388 158.904L134.75 160.346L132.974 160.652L132.612 159.21ZM119.585 147.912L121.361 147.607L121.723 149.049L119.947 149.355L119.585 147.912ZM112.499 152.894L112.137 151.451L113.913 151.146L114.275 152.588L112.499 152.894ZM127.173 174.438L125.397 174.744L125.035 173.302L126.811 172.996L127.173 174.438ZM128.044 170.527L126.268 170.833L125.905 169.391L127.681 169.085L128.044 170.527ZM127.487 162.956C126.265 164.76 125.039 166.563 123.809 168.364C123.568 168.72 123.02 168.852 122.585 168.659C122.49 168.617 122.405 168.561 122.334 168.494C119.666 165.984 116.023 162.543 114.914 158.748C114.463 157.172 114.814 155.51 115.887 154.137C116.922 152.793 118.585 151.846 120.49 151.518C124.821 150.772 127.609 153.085 128.774 155.499C129.165 156.31 129.403 157.166 129.481 158.037C129.641 159.783 128.703 161.166 127.612 162.769L127.487 162.956ZM140.329 175.182L138.553 175.488L138.191 174.046L139.967 173.74L140.329 175.182ZM138.535 171.73C133.889 172.53 132.137 172.073 131.595 169.916C130.895 167.128 133.111 164.389 136.543 163.798C139.976 163.207 143.327 164.988 144.027 167.776C144.568 169.932 143.182 170.93 138.535 171.73ZM151.673 168.716L149.898 169.022L149.535 167.58L151.311 167.274L151.673 168.716ZM152.066 163.669C151.958 163.865 151.745 164.009 151.489 164.061C151.214 164.116 150.923 164.069 150.697 163.931L144.855 160.289C142.656 158.938 140.758 157.776 140.024 155.641C139.792 154.977 139.648 154.294 139.596 153.605C139.472 152.362 139.813 151.115 140.576 150.028C141.62 148.596 143.354 147.583 145.353 147.237C147.211 146.914 149.145 147.211 150.721 148.061C152.391 148.968 153.547 150.379 153.936 151.985C154.769 155.935 154.117 160.006 152.066 163.669ZM159.25 154.624L157.474 154.929L157.112 153.487L158.888 153.181L159.25 154.624Z" fill="#F28E8F" fill-opacity="0.56"/>
<path d="M117.26 182.915L116.897 181.473L115.122 181.779L115.484 183.221L113.708 183.527L114.07 184.969L115.846 184.663L116.208 186.105L117.984 185.799L117.622 184.357L119.398 184.052L119.036 182.609L117.26 182.915Z" fill="#F28E8F" fill-opacity="0.56"/>
<path d="M124.708 179.376L122.932 179.682L123.294 181.124L125.07 180.818L124.708 179.376Z" fill="#F28E8F" fill-opacity="0.56"/>
<path d="M154.553 176.495L154.191 175.052L152.415 175.358L152.777 176.8L151.002 177.106L151.364 178.548L153.14 178.242L153.502 179.684L155.278 179.379L154.916 177.937L156.691 177.631L156.329 176.189L154.553 176.495Z" fill="#F28E8F" fill-opacity="0.56"/>
<path d="M158.088 172.125L156.312 172.431L156.674 173.873L158.45 173.567L158.088 172.125Z" fill="#F28E8F" fill-opacity="0.56"/>
<path d="M161.803 168.476L160.027 168.782L160.389 170.224L162.165 169.918L161.803 168.476Z" fill="#F28E8F" fill-opacity="0.56"/>
<path d="M128.792 140.309L128.429 138.867L126.654 139.173L127.016 140.615L125.24 140.921L125.602 142.363L127.378 142.057L127.74 143.499L129.516 143.194L129.154 141.752L130.93 141.446L130.568 140.004L128.792 140.309Z" fill="#F28E8F" fill-opacity="0.56"/>
<path d="M123.102 139.785L121.326 140.09L121.688 141.532L123.464 141.227L123.102 139.785Z" fill="#F28E8F" fill-opacity="0.56"/>
</g>
<path d="M176.366 174.356L174.958 174.086L174.902 175.716L176.311 175.987L176.366 174.356Z" fill="#F28E8F" fill-opacity="0.56"/>
<path d="M45.3746 56.2032L45.4297 54.5724L44.0209 54.3018L43.9658 55.9326L42.557 55.6619L42.5019 57.2927L43.9107 57.5634L43.8556 59.1942L45.2644 59.4648L45.3195 57.834L46.7283 58.1046L46.7834 56.4738L45.3746 56.2032Z" fill="#F28E8F" fill-opacity="0.56"/>
<path d="M41.4354 54.0261L40.0266 53.7555L39.9715 55.3863L41.3803 55.6569L41.4354 54.0261Z" fill="#F28E8F" fill-opacity="0.56"/>
<path d="M252.22 166.269L252.275 164.638L250.866 164.368L250.811 165.999L249.402 165.728L249.347 167.359L250.756 167.629L250.701 169.26L252.109 169.531L252.164 167.9L253.573 168.171L253.628 166.54L252.22 166.269Z" fill="#F28E8F" fill-opacity="0.56"/>
<path d="M258.467 164.244L257.059 163.973L257.004 165.604L258.412 165.874L258.467 164.244Z" fill="#F28E8F" fill-opacity="0.56"/>
<path d="M280.584 169.031L280.697 167.267L279.346 167.129L279.233 168.893L277.882 168.756L277.769 170.52L279.119 170.658L279.006 172.423L280.356 172.56L280.47 170.796L281.821 170.934L281.934 169.169L280.584 169.031Z" fill="#F28E8F" fill-opacity="0.56"/>
<path d="M284.245 165.097L282.836 164.826L282.781 166.457L284.189 166.728L284.245 165.097Z" fill="#F28E8F" fill-opacity="0.56"/>
<path d="M287.848 161.912L286.439 161.642L286.384 163.272L287.793 163.543L287.848 161.912Z" fill="#F28E8F" fill-opacity="0.56"/>
<path d="M31.8025 53.661L31.916 51.8964L30.5653 51.7586L30.4518 53.5233L29.1011 53.3855L28.9876 55.1501L30.3383 55.2879L30.2248 57.0525L31.5755 57.1903L31.689 55.4257L33.0397 55.5635L33.1532 53.7988L31.8025 53.661Z" fill="#F28E8F" fill-opacity="0.56"/>
<path d="M35.4628 49.7269L34.054 49.4563L33.9989 51.0871L35.4077 51.3577L35.4628 49.7269Z" fill="#F28E8F" fill-opacity="0.56"/>
<path d="M39.0668 46.5421L37.658 46.2715L37.6029 47.9023L39.0117 48.1729L39.0668 46.5421Z" fill="#F28E8F" fill-opacity="0.56"/>
<g clip-path="url(#clip14)">
<path d="M82.52 386.364C81.6458 383.182 79.0377 380.507 75.4315 379.094C69.0948 376.713 61.545 378.976 58.5686 384.148C58.0717 385.012 57.7234 385.926 57.5338 386.866C57.4521 387.268 56.9855 387.542 56.4917 387.479C56.2376 387.446 56.0134 387.327 55.8751 387.151C52.1254 382.367 44.293 380.99 38.381 384.077C36.5683 385.024 35.0771 386.327 34.0476 387.866C29.6054 394.489 35.479 403.019 41.0663 406.961C51.6071 414.405 67.6383 413.443 76.873 404.812C78.6772 403.126 80.1361 401.216 81.1933 399.155C83.2734 395.1 83.7376 390.625 82.52 386.364ZM36.3154 398.036L34.5395 398.342L34.1773 396.899L35.9532 396.594L36.3154 398.036ZM66.7978 379.248L68.5737 378.942L68.9359 380.384L67.16 380.69L66.7978 379.248ZM61.7212 395.919L63.4971 395.613L63.8592 397.055L62.0833 397.361L61.7212 395.919ZM57.2465 389.167L59.0223 388.861L59.3845 390.303L57.6086 390.609L57.2465 389.167V389.167ZM55.8502 394.673L57.6261 394.367L57.9883 395.809L56.2124 396.115L55.8502 394.673ZM42.8232 383.375L44.5991 383.07L44.9613 384.512L43.1854 384.817L42.8232 383.375ZM35.7371 388.356L35.375 386.914L37.1509 386.609L37.513 388.051L35.7371 388.356ZM50.4114 409.901L48.6355 410.207L48.2733 408.765L50.0492 408.459L50.4114 409.901ZM51.2818 405.99L49.5059 406.296L49.1438 404.854L50.9197 404.548L51.2818 405.99ZM50.7253 398.419C49.503 400.223 48.2769 402.026 47.0471 403.827C46.8065 404.183 46.2585 404.315 45.8231 404.122C45.7278 404.08 45.643 404.024 45.5725 403.957C42.9041 401.446 39.2609 398.006 38.1524 394.211C37.7016 392.635 38.0522 390.973 39.125 389.6C40.1607 388.256 41.8237 387.309 43.7287 386.981C48.0592 386.235 50.8475 388.548 52.0122 390.961C52.4028 391.773 52.6412 392.629 52.7192 393.5C52.8798 395.246 51.9414 396.629 50.8506 398.232L50.7253 398.419ZM63.567 410.645L61.7911 410.951L61.4289 409.509L63.2048 409.203L63.567 410.645ZM61.7736 407.193C57.127 407.993 55.3753 407.535 54.8336 405.379C54.1335 402.591 56.3489 399.852 59.7817 399.261C63.2145 398.67 66.5648 400.451 67.2649 403.239C67.8065 405.395 66.4202 406.393 61.7736 407.193ZM74.9117 404.179L73.1358 404.485L72.7737 403.042L74.5496 402.737L74.9117 404.179ZM75.3042 399.131C75.1965 399.327 74.9833 399.472 74.7273 399.523C74.4518 399.579 74.1614 399.531 73.9352 399.394L68.0933 395.752C65.8938 394.401 63.9966 393.239 63.2623 391.104C63.0298 390.44 62.8863 389.757 62.8342 389.067C62.71 387.825 63.0515 386.578 63.8138 385.491C64.8583 384.059 66.5924 383.046 68.5912 382.7C70.4494 382.377 72.3836 382.674 73.9588 383.524C75.6294 384.431 76.7854 385.842 77.1739 387.448C78.0071 391.398 77.3555 395.469 75.3042 399.131ZM82.4886 390.086L80.7128 390.392L80.3506 388.95L82.1265 388.644L82.4886 390.086Z" fill="#F28E8F" fill-opacity="0.56"/>
<path d="M40.4979 418.378L40.1358 416.936L38.3599 417.242L38.7221 418.684L36.9462 418.99L37.3083 420.432L39.0842 420.126L39.4464 421.568L41.2223 421.262L40.8601 419.82L42.636 419.514L42.2738 418.072L40.4979 418.378Z" fill="#F28E8F" fill-opacity="0.56"/>
<path d="M47.9461 414.839L46.1702 415.145L46.5323 416.587L48.3082 416.281L47.9461 414.839Z" fill="#F28E8F" fill-opacity="0.56"/>
<path d="M77.7916 411.957L77.4295 410.515L75.6536 410.821L76.0158 412.263L74.2399 412.569L74.602 414.011L76.3779 413.705L76.7401 415.147L78.516 414.842L78.1538 413.4L79.9297 413.094L79.5675 411.652L77.7916 411.957Z" fill="#F28E8F" fill-opacity="0.56"/>
<path d="M81.3259 407.588L79.55 407.894L79.9122 409.336L81.6881 409.03L81.3259 407.588Z" fill="#F28E8F" fill-opacity="0.56"/>
<path d="M85.0413 403.939L83.2654 404.245L83.6276 405.687L85.4035 405.381L85.0413 403.939Z" fill="#F28E8F" fill-opacity="0.56"/>
<path d="M52.0299 375.772L51.6678 374.33L49.8919 374.636L50.254 376.078L48.4781 376.384L48.8403 377.826L50.6162 377.52L50.9784 378.962L52.7543 378.657L52.3921 377.214L54.168 376.909L53.8058 375.467L52.0299 375.772Z" fill="#F28E8F" fill-opacity="0.56"/>
<path d="M46.3401 375.247L44.5642 375.553L44.9264 376.995L46.7023 376.69L46.3401 375.247Z" fill="#F28E8F" fill-opacity="0.56"/>
</g>
<path d="M108.302 524.669C109.02 522.04 108.502 518.843 106.893 515.98C104.026 511.019 98.6198 508.582 94.818 510.537C94.1832 510.864 93.6177 511.303 93.1375 511.844C92.9316 512.074 92.5449 512.016 92.2738 511.712C92.1343 511.556 92.0466 511.357 92.0324 511.164C91.6534 505.928 87.4982 500.863 82.7517 499.851C81.2963 499.541 79.8942 499.643 78.677 500.148C73.431 502.32 73.6207 511.226 75.4296 516.856C78.8391 527.483 88.8185 535.275 97.7194 534.261C99.4582 534.063 101.078 533.53 102.515 532.684C105.344 531.017 107.369 528.213 108.302 524.669ZM76.0665 508.272L74.8833 507.545L75.2291 506.371L76.4124 507.099L76.0665 508.272ZM101.661 511.535L102.844 512.263L102.498 513.436L101.315 512.709L101.661 511.535ZM92.113 520.218L93.2963 520.945L92.9504 522.119L91.7672 521.391L92.113 520.218ZM92.0674 513.26L93.2506 513.987L92.9048 515.161L91.7215 514.433L92.0674 513.26V513.26ZM89.0821 516.275L90.2653 517.003L89.9195 518.176L88.7363 517.448L89.0821 516.275ZM85.6869 501.714L86.8701 502.441L86.5243 503.615L85.341 502.887L85.6869 501.714ZM79.4977 501.373L79.8435 500.2L81.0268 500.927L80.6809 502.101L79.4977 501.373ZM79.8805 523.784L78.6972 523.057L79.0431 521.883L80.2263 522.611L79.8805 523.784ZM81.9283 521.578L80.7451 520.851L81.0909 519.677L82.2741 520.405L81.9283 521.578ZM84.5499 516.127C83.1135 516.712 81.6754 517.294 80.2356 517.873C79.9526 517.989 79.5728 517.79 79.3873 517.429C79.3467 517.35 79.3177 517.267 79.3015 517.184C78.6827 514.068 77.843 509.804 78.6597 506.635C79.0047 505.323 79.8634 504.376 81.0419 504.006C82.1872 503.635 83.5528 503.867 84.8223 504.647C87.7076 506.421 88.4754 509.466 88.2312 511.724C88.1485 512.483 87.9574 513.191 87.6641 513.826C87.0789 515.1 85.9769 515.548 84.698 516.065L84.5499 516.127ZM87.4714 531.224L86.2882 530.496L86.634 529.323L87.8173 530.05L87.4714 531.224ZM87.7444 527.926C84.6485 526.023 83.7776 524.788 84.2948 523.033C84.9633 520.765 87.3593 520.067 89.6465 521.473C91.9337 522.879 93.2459 525.858 92.5774 528.126C92.0602 529.881 90.8403 529.83 87.7444 527.926ZM96.7916 532.796L95.6083 532.069L95.9542 530.895L97.1374 531.623L96.7916 532.796ZM98.9965 529.564C98.8555 529.641 98.6713 529.627 98.4979 529.527C98.3113 529.42 98.1558 529.235 98.0738 529.022L95.9955 523.462C95.2052 521.382 94.5222 519.591 94.9154 517.75C95.0351 517.175 95.2156 516.634 95.4537 516.137C95.8641 515.225 96.5553 514.555 97.4362 514.216C98.6209 513.791 100.055 514.015 101.388 514.832C102.627 515.591 103.67 516.813 104.282 518.222C104.929 519.72 105.07 521.291 104.676 522.59C103.634 525.72 101.655 528.15 98.9965 529.564ZM106.831 527.188L105.647 526.46L105.993 525.287L107.176 526.015L106.831 527.188Z" fill="#F28E8F" fill-opacity="0.56"/>
<path d="M70.3167 528.618L70.6678 527.42L69.4635 526.675L69.1124 527.873L67.9081 527.128L67.557 528.327L68.7613 529.072L68.4101 530.271L69.6144 531.016L69.9655 529.817L71.1698 530.562L71.5209 529.363L70.3167 528.618Z" fill="#F28E8F" fill-opacity="0.56"/>
<path d="M75.9418 529.233L74.7375 528.488L74.3864 529.686L75.5907 530.431L75.9418 529.233Z" fill="#F28E8F" fill-opacity="0.56"/>
<path d="M93.3599 540.972L93.711 539.773L92.5068 539.028L92.1556 540.227L90.9513 539.482L90.6002 540.681L91.8045 541.426L91.4533 542.624L92.6576 543.369L93.0087 542.171L94.213 542.916L94.5642 541.717L93.3599 540.972Z" fill="#F28E8F" fill-opacity="0.56"/>
<path d="M95.854 499.086L96.2052 497.887L95.0009 497.142L94.6498 498.341L93.4455 497.596L93.0943 498.794L94.2986 499.539L93.9475 500.738L95.1517 501.483L95.5029 500.284L96.7072 501.029L97.0583 499.831L95.854 499.086Z" fill="#F28E8F" fill-opacity="0.56"/>
<path d="M93.0204 495.966L91.8162 495.221L91.465 496.419L92.6693 497.164L93.0204 495.966Z" fill="#F28E8F" fill-opacity="0.56"/>
<path d="M204.235 382.66C204.3 379.109 202.956 375.514 200.581 372.889C196.385 368.382 190.235 368.248 186.845 372.589C186.279 373.313 185.813 374.139 185.459 375.041C185.307 375.428 184.897 375.557 184.543 375.332C184.36 375.215 184.22 375.02 184.156 374.795C182.435 368.662 176.895 364.7 171.782 365.945C170.215 366.326 168.807 367.179 167.691 368.423C162.879 373.776 165.342 384.444 168.626 390.309C174.82 401.382 187.011 405.612 195.856 399.758C197.584 398.615 199.105 397.128 200.359 395.357C202.828 391.872 204.184 387.43 204.235 382.66ZM167.091 379.601L165.695 379.337L165.75 377.738L167.145 378.003L167.091 379.601ZM194.097 370.237L195.493 370.501L195.438 372.099L194.043 371.835L194.097 370.237ZM186.545 385.697L187.94 385.961L187.885 387.559L186.49 387.295L186.545 385.697ZM184.726 377.31L186.121 377.574L186.066 379.172L184.671 378.908L184.726 377.31V377.31ZM182.441 382.507L183.836 382.771L183.781 384.37L182.386 384.105L182.441 382.507ZM175.259 366.67L176.654 366.934L176.599 368.532L175.204 368.268L175.259 366.67ZM168.842 369.477L168.897 367.878L170.293 368.143L170.238 369.741L168.842 369.477ZM174.943 396.369L173.547 396.105L173.602 394.507L174.998 394.771L174.943 396.369ZM176.475 392.638L175.08 392.374L175.135 390.775L176.53 391.04L176.475 392.638ZM177.768 384.684C176.448 386.138 175.125 387.59 173.8 389.039C173.54 389.326 173.101 389.283 172.819 388.943C172.758 388.869 172.707 388.784 172.669 388.692C171.243 385.246 169.298 380.529 169.326 376.273C169.344 374.508 169.981 372.916 171.092 371.856C172.169 370.813 173.625 370.383 175.122 370.666C178.525 371.31 180.086 374.592 180.411 377.448C180.52 378.408 180.505 379.364 180.367 380.284C180.093 382.128 179.08 383.243 177.903 384.533L177.768 384.684ZM184.601 401.415L183.206 401.151L183.261 399.553L184.656 399.817L184.601 401.415ZM184.041 397.287C180.389 396.596 179.184 395.556 179.266 393.166C179.372 390.077 181.645 387.986 184.342 388.497C187.039 389.008 189.14 391.926 189.034 395.016C188.952 397.406 187.692 397.979 184.041 397.287ZM194.534 398.47L193.138 398.206L193.193 396.607L194.589 396.872L194.534 398.47ZM195.966 393.416C195.841 393.583 195.649 393.662 195.446 393.631C195.228 393.598 195.022 393.455 194.884 393.241L191.342 387.6C190.004 385.497 188.849 383.687 188.782 381.256C188.758 380.499 188.805 379.752 188.922 379.027C189.109 377.711 189.645 376.542 190.46 375.674C191.563 374.544 193.087 374.069 194.658 374.364C196.119 374.638 197.497 375.572 198.481 376.958C199.525 378.432 200.07 380.257 199.998 382.032C199.729 386.357 198.324 390.325 195.966 393.416ZM203.372 386.47L201.977 386.206L202.032 384.608L203.427 384.872L203.372 386.47Z" fill="#F28E8F" fill-opacity="0.56"/>
<path d="M170.394 584.313L170.449 582.682L169.04 582.411L168.985 584.042L167.576 583.771L167.521 585.402L168.93 585.673L168.875 587.304L170.284 587.574L170.339 585.943L171.748 586.214L171.803 584.583L170.394 584.313Z" fill="#F28E8F" fill-opacity="0.56"/>
<path d="M166.455 582.135L165.046 581.865L164.991 583.496L166.4 583.766L166.455 582.135Z" fill="#F28E8F" fill-opacity="0.56"/>
<path d="M196.592 927.804L196.647 926.173L195.238 925.902L195.183 927.533L193.774 927.262L193.719 928.893L195.128 929.164L195.073 930.795L196.482 931.065L196.537 929.434L197.946 929.705L198.001 928.074L196.592 927.804Z" fill="#F28E8F" fill-opacity="0.56"/>
<path d="M202.84 925.778L201.431 925.507L201.376 927.138L202.785 927.408L202.84 925.778Z" fill="#F28E8F" fill-opacity="0.56"/>
<path d="M224.956 930.565L225.07 928.801L223.719 928.663L223.605 930.428L222.255 930.29L222.141 932.054L223.492 932.192L223.378 933.957L224.729 934.095L224.843 932.33L226.193 932.468L226.307 930.703L224.956 930.565Z" fill="#F28E8F" fill-opacity="0.56"/>
<path d="M228.617 926.631L227.208 926.36L227.153 927.991L228.562 928.262L228.617 926.631Z" fill="#F28E8F" fill-opacity="0.56"/>
<path d="M314.933 863.687L314.988 862.056L313.579 861.786L313.524 863.416L312.115 863.146L312.06 864.776L313.469 865.047L313.414 866.678L314.823 866.949L314.878 865.318L316.286 865.588L316.342 863.958L314.933 863.687Z" fill="#F28E8F" fill-opacity="0.56"/>
<path d="M321.181 861.661L319.772 861.391L319.717 863.021L321.125 863.292L321.181 861.661Z" fill="#F28E8F" fill-opacity="0.56"/>
<path d="M343.297 866.449L343.41 864.684L342.06 864.546L341.946 866.311L340.595 866.173L340.482 867.938L341.833 868.076L341.719 869.84L343.07 869.978L343.183 868.213L344.534 868.351L344.648 866.587L343.297 866.449Z" fill="#F28E8F" fill-opacity="0.56"/>
<path d="M346.957 862.515L345.549 862.244L345.493 863.875L346.902 864.145L346.957 862.515Z" fill="#F28E8F" fill-opacity="0.56"/>
<path d="M275.715 964.577L275.77 962.947L274.361 962.676L274.306 964.307L272.898 964.036L272.842 965.667L274.251 965.938L274.196 967.568L275.605 967.839L275.66 966.208L277.069 966.479L277.124 964.848L275.715 964.577Z" fill="#F28E8F" fill-opacity="0.56"/>
<path d="M281.963 962.552L280.554 962.281L280.499 963.912L281.908 964.182L281.963 962.552Z" fill="#F28E8F" fill-opacity="0.56"/>
<path d="M304.079 967.339L304.193 965.575L302.842 965.437L302.729 967.202L301.378 967.064L301.264 968.828L302.615 968.966L302.502 970.731L303.852 970.869L303.966 969.104L305.317 969.242L305.43 967.477L304.079 967.339Z" fill="#F28E8F" fill-opacity="0.56"/>
<path d="M307.74 963.405L306.331 963.135L306.276 964.765L307.685 965.036L307.74 963.405Z" fill="#F28E8F" fill-opacity="0.56"/>
<path d="M373.415 959.862L373.47 958.231L372.061 957.96L372.006 959.591L370.597 959.32L370.542 960.951L371.951 961.222L371.896 962.853L373.305 963.123L373.36 961.492L374.769 961.763L374.824 960.132L373.415 959.862Z" fill="#F28E8F" fill-opacity="0.56"/>
<path d="M379.663 957.836L378.254 957.565L378.199 959.196L379.608 959.467L379.663 957.836Z" fill="#F28E8F" fill-opacity="0.56"/>
<path d="M401.779 962.624L401.893 960.859L400.542 960.721L400.428 962.486L399.078 962.348L398.964 964.113L400.315 964.25L400.201 966.015L401.552 966.153L401.666 964.388L403.016 964.526L403.13 962.761L401.779 962.624Z" fill="#F28E8F" fill-opacity="0.56"/>
<path d="M405.44 958.689L404.031 958.419L403.976 960.05L405.385 960.32L405.44 958.689Z" fill="#F28E8F" fill-opacity="0.56"/>
<path d="M284.66 1013.58L284.715 1011.95L283.306 1011.68L283.251 1013.31L281.842 1013.04L281.787 1014.67L283.196 1014.94L283.141 1016.57L284.549 1016.84L284.604 1015.21L286.013 1015.48L286.068 1013.85L284.66 1013.58Z" fill="#F28E8F" fill-opacity="0.56"/>
<path d="M290.907 1011.56L289.499 1011.28L289.443 1012.92L290.852 1013.19L290.907 1011.56Z" fill="#F28E8F" fill-opacity="0.56"/>
<path d="M313.023 1016.34L313.137 1014.58L311.786 1014.44L311.673 1016.21L310.322 1016.07L310.209 1017.83L311.559 1017.97L311.446 1019.73L312.796 1019.87L312.91 1018.11L314.261 1018.25L314.374 1016.48L313.023 1016.34Z" fill="#F28E8F" fill-opacity="0.56"/>
<path d="M316.684 1012.41L315.276 1012.14L315.221 1013.77L316.629 1014.04L316.684 1012.41Z" fill="#F28E8F" fill-opacity="0.56"/>
<path d="M250.916 751.686C251.634 749.058 251.116 745.861 249.507 742.998C246.64 738.036 241.234 735.6 237.432 737.555C236.797 737.882 236.232 738.321 235.752 738.861C235.546 739.092 235.159 739.033 234.888 738.73C234.749 738.574 234.661 738.375 234.647 738.182C234.268 732.946 230.112 727.881 225.366 726.869C223.911 726.558 222.508 726.661 221.291 727.166C216.045 729.338 216.235 738.244 218.044 743.874C221.453 754.501 231.433 762.293 240.334 761.279C242.073 761.081 243.692 760.548 245.13 759.701C247.958 758.035 249.983 755.231 250.916 751.686ZM218.681 735.29L217.498 734.563L217.843 733.389L219.027 734.117L218.681 735.29ZM244.275 738.553L245.458 739.281L245.112 740.454L243.929 739.726L244.275 738.553ZM234.727 747.235L235.911 747.963L235.565 749.136L234.381 748.409L234.727 747.235ZM234.682 740.278L235.865 741.005L235.519 742.178L234.336 741.451L234.682 740.278V740.278ZM231.696 743.293L232.88 744.02L232.534 745.194L231.351 744.466L231.696 743.293ZM228.301 728.731L229.484 729.459L229.139 730.632L227.955 729.905L228.301 728.731ZM222.112 728.391L222.458 727.218L223.641 727.945L223.295 729.118L222.112 728.391ZM222.495 750.802L221.311 750.074L221.657 748.901L222.841 749.629L222.495 750.802ZM224.543 748.596L223.359 747.869L223.705 746.695L224.888 747.423L224.543 748.596ZM227.164 743.144C225.728 743.729 224.29 744.312 222.85 744.891C222.567 745.006 222.187 744.807 222.002 744.447C221.961 744.368 221.932 744.285 221.916 744.202C221.297 741.086 220.457 736.822 221.274 733.652C221.619 732.341 222.478 731.394 223.656 731.024C224.801 730.653 226.167 730.885 227.437 731.665C230.322 733.439 231.09 736.484 230.845 738.742C230.763 739.501 230.572 740.209 230.278 740.844C229.693 742.118 228.591 742.566 227.312 743.083L227.164 743.144ZM230.086 758.241L228.902 757.514L229.248 756.34L230.432 757.068L230.086 758.241ZM230.359 754.944C227.263 753.041 226.392 751.806 226.909 750.051C227.578 747.783 229.974 747.085 232.261 748.491C234.548 749.897 235.86 752.876 235.192 755.144C234.674 756.899 233.455 756.848 230.359 754.944ZM239.406 759.814L238.223 759.086L238.568 757.913L239.752 758.641L239.406 759.814ZM241.611 756.582C241.47 756.659 241.286 756.645 241.112 756.545C240.926 756.438 240.77 756.252 240.688 756.04L238.61 750.48C237.82 748.4 237.136 746.609 237.53 744.767C237.649 744.193 237.83 743.652 238.068 743.154C238.478 742.243 239.17 741.573 240.05 741.234C241.235 740.809 242.669 741.032 244.002 741.85C245.241 742.609 246.284 743.831 246.896 745.24C247.543 746.738 247.685 748.309 247.291 749.608C246.248 752.738 244.269 755.168 241.611 756.582ZM249.445 754.206L248.262 753.478L248.607 752.305L249.791 753.032L249.445 754.206Z" fill="#F28E8F" fill-opacity="0.56"/>
<path d="M27.1007 598.296L27.1558 596.666L25.747 596.395L25.6919 598.026L24.283 597.755L24.2279 599.386L25.6368 599.657L25.5817 601.287L26.9905 601.558L27.0456 599.927L28.4544 600.198L28.5095 598.567L27.1007 598.296Z" fill="#F28E8F" fill-opacity="0.56"/>
<path d="M33.3485 596.271L31.9397 596L31.8846 597.631L33.2934 597.901L33.3485 596.271Z" fill="#F28E8F" fill-opacity="0.56"/>
<path d="M55.4646 601.058L55.5782 599.294L54.2274 599.156L54.1139 600.92L52.7632 600.783L52.6497 602.547L54.0004 602.685L53.8869 604.45L55.2376 604.587L55.3511 602.823L56.7018 602.961L56.8154 601.196L55.4646 601.058Z" fill="#F28E8F" fill-opacity="0.56"/>
<path d="M59.1256 597.124L57.7168 596.854L57.6617 598.484L59.0705 598.755L59.1256 597.124Z" fill="#F28E8F" fill-opacity="0.56"/>
<path d="M116.374 666.181C117.092 663.553 116.574 660.356 114.965 657.492C112.098 652.531 106.692 650.094 102.89 652.05C102.255 652.376 101.69 652.816 101.21 653.356C101.004 653.587 100.617 653.528 100.346 653.225C100.206 653.069 100.119 652.869 100.104 652.676C99.7254 647.441 95.5702 642.376 90.8237 641.363C89.3683 641.053 87.9662 641.155 86.749 641.661C81.503 643.832 81.6927 652.739 83.5017 658.369C86.9111 668.995 96.8905 676.788 105.791 675.774C107.53 675.576 109.15 675.043 110.587 674.196C113.416 672.529 115.441 669.726 116.374 666.181ZM84.1385 649.785L82.9553 649.057L83.3011 647.884L84.4844 648.611L84.1385 649.785ZM109.733 653.048L110.916 653.775L110.57 654.949L109.387 654.221L109.733 653.048ZM100.185 661.73L101.368 662.458L101.022 663.631L99.8392 662.903L100.185 661.73ZM100.139 654.772L101.323 655.5L100.977 656.673L99.7936 655.945L100.139 654.772V654.772ZM97.1541 657.788L98.3374 658.515L97.9915 659.688L96.8083 658.961L97.1541 657.788ZM93.7589 643.226L94.9421 643.954L94.5963 645.127L93.413 644.399L93.7589 643.226ZM87.5697 642.886L87.9156 641.712L89.0988 642.44L88.753 643.613L87.5697 642.886ZM87.9525 665.297L86.7692 664.569L87.1151 663.396L88.2983 664.123L87.9525 665.297ZM90.0003 663.091L88.8171 662.363L89.1629 661.19L90.3461 661.917L90.0003 663.091ZM92.6219 657.639C91.1855 658.224 89.7474 658.806 88.3076 659.385C88.0247 659.501 87.6449 659.302 87.4593 658.941C87.4187 658.862 87.3897 658.78 87.3736 658.697C86.7547 655.58 85.915 651.316 86.7317 648.147C87.0767 646.836 87.9354 645.888 89.1139 645.518C90.2592 645.148 91.6248 645.379 92.8943 646.159C95.7796 647.934 96.5474 650.979 96.3032 653.237C96.2205 653.995 96.0294 654.704 95.7362 655.338C95.1509 656.613 94.0489 657.061 92.77 657.578L92.6219 657.639ZM95.5434 672.736L94.3602 672.008L94.706 670.835L95.8893 671.563L95.5434 672.736ZM95.8164 669.439C92.7205 667.535 91.8496 666.301 92.3668 664.546C93.0353 662.278 95.4313 661.579 97.7185 662.986C100.006 664.392 101.318 667.37 100.649 669.639C100.132 671.393 98.9124 671.342 95.8164 669.439ZM104.864 674.309L103.68 673.581L104.026 672.408L105.209 673.135L104.864 674.309ZM107.069 671.077C106.928 671.154 106.743 671.14 106.57 671.04C106.383 670.932 106.228 670.747 106.146 670.534L104.068 664.975C103.277 662.895 102.594 661.103 102.987 659.262C103.107 658.687 103.288 658.146 103.526 657.649C103.936 656.737 104.627 656.068 105.508 655.729C106.693 655.304 108.127 655.527 109.46 656.345C110.699 657.104 111.742 658.325 112.354 659.735C113.001 661.233 113.142 662.803 112.748 664.102C111.706 667.232 109.727 669.663 107.069 671.077ZM114.903 668.7L113.719 667.973L114.065 666.8L115.248 667.527L114.903 668.7Z" fill="#F28E8F" fill-opacity="0.56"/>
<path d="M193.333 858.398L193.684 857.199L192.48 856.454L192.129 857.653L190.925 856.908L190.574 858.106L191.778 858.851L191.427 860.05L192.631 860.795L192.982 859.596L194.186 860.341L194.538 859.143L193.333 858.398Z" fill="#F28E8F" fill-opacity="0.56"/>
<path d="M198.958 859.012L197.754 858.267L197.403 859.466L198.607 860.211L198.958 859.012Z" fill="#F28E8F" fill-opacity="0.56"/>
<path d="M216.376 870.751L216.728 869.553L215.523 868.808L215.172 870.006L213.968 869.261L213.617 870.46L214.821 871.205L214.47 872.403L215.674 873.148L216.025 871.95L217.23 872.695L217.581 871.496L216.376 870.751Z" fill="#F28E8F" fill-opacity="0.56"/>
<path d="M218.871 828.865L219.222 827.667L218.018 826.922L217.666 828.12L216.462 827.375L216.111 828.574L217.315 829.319L216.964 830.517L218.168 831.262L218.519 830.064L219.724 830.809L220.075 829.61L218.871 828.865Z" fill="#F28E8F" fill-opacity="0.56"/>
<path d="M216.037 825.745L214.833 825L214.482 826.199L215.686 826.944L216.037 825.745Z" fill="#F28E8F" fill-opacity="0.56"/>
<path d="M335.235 952.66C335.3 949.109 333.956 945.514 331.581 942.889C327.385 938.382 321.235 938.248 317.845 942.589C317.279 943.313 316.813 944.139 316.459 945.041C316.307 945.428 315.897 945.557 315.543 945.332C315.36 945.215 315.22 945.02 315.156 944.795C313.435 938.662 307.895 934.7 302.782 935.945C301.215 936.326 299.807 937.179 298.691 938.423C293.879 943.776 296.342 954.444 299.626 960.309C305.82 971.382 318.011 975.612 326.856 969.758C328.584 968.615 330.105 967.128 331.359 965.357C333.828 961.872 335.184 957.43 335.235 952.66ZM298.091 949.601L296.695 949.337L296.75 947.738L298.145 948.003L298.091 949.601ZM325.097 940.237L326.493 940.501L326.438 942.099L325.043 941.835L325.097 940.237ZM317.545 955.697L318.94 955.961L318.885 957.559L317.49 957.295L317.545 955.697ZM315.726 947.31L317.121 947.574L317.066 949.172L315.671 948.908L315.726 947.31V947.31ZM313.441 952.507L314.836 952.771L314.781 954.37L313.386 954.105L313.441 952.507ZM306.259 936.67L307.654 936.934L307.599 938.532L306.204 938.268L306.259 936.67ZM299.842 939.477L299.897 937.878L301.293 938.143L301.238 939.741L299.842 939.477ZM305.943 966.369L304.547 966.105L304.602 964.507L305.998 964.771L305.943 966.369ZM307.475 962.638L306.08 962.374L306.135 960.775L307.53 961.04L307.475 962.638ZM308.768 954.684C307.448 956.138 306.125 957.59 304.8 959.039C304.54 959.326 304.101 959.283 303.819 958.943C303.758 958.869 303.707 958.784 303.669 958.692C302.243 955.246 300.298 950.529 300.326 946.273C300.344 944.508 300.981 942.916 302.092 941.856C303.169 940.813 304.625 940.383 306.122 940.666C309.525 941.31 311.086 944.592 311.411 947.448C311.52 948.408 311.505 949.364 311.367 950.284C311.093 952.128 310.08 953.243 308.903 954.533L308.768 954.684ZM315.601 971.415L314.206 971.151L314.261 969.553L315.656 969.817L315.601 971.415ZM315.041 967.287C311.389 966.596 310.184 965.556 310.266 963.166C310.372 960.077 312.645 957.986 315.342 958.497C318.039 959.008 320.14 961.926 320.034 965.016C319.952 967.406 318.692 967.979 315.041 967.287ZM325.534 968.47L324.138 968.206L324.193 966.607L325.589 966.872L325.534 968.47ZM326.966 963.416C326.841 963.583 326.649 963.662 326.446 963.631C326.228 963.598 326.022 963.455 325.884 963.241L322.342 957.6C321.004 955.497 319.849 953.687 319.782 951.256C319.758 950.499 319.805 949.752 319.922 949.027C320.109 947.711 320.645 946.542 321.46 945.674C322.563 944.544 324.087 944.069 325.658 944.364C327.119 944.638 328.497 945.572 329.481 946.958C330.525 948.432 331.07 950.257 330.998 952.032C330.729 956.357 329.324 960.325 326.966 963.416ZM334.372 956.47L332.977 956.206L333.032 954.608L334.427 954.872L334.372 956.47Z" fill="#F28E8F" fill-opacity="0.56"/>
<path d="M293.411 914.092L293.466 912.461L292.057 912.19L292.002 913.821L290.593 913.55L290.538 915.181L291.947 915.452L291.892 917.083L293.301 917.353L293.356 915.723L294.764 915.993L294.82 914.362L293.411 914.092Z" fill="#F28E8F" fill-opacity="0.56"/>
<path d="M289.472 911.915L288.063 911.644L288.008 913.275L289.417 913.545L289.472 911.915Z" fill="#F28E8F" fill-opacity="0.56"/>
</g>
<defs>
<clipPath id="clip0">
<rect width="453" height="1024" fill="white"/>
</clipPath>
<clipPath id="clip1">
<rect width="54.0607" height="44.6065" fill="white" transform="matrix(0.985501 -0.169668 0.243578 0.969881 102.703 143.297)"/>
</clipPath>
<clipPath id="clip2">
<rect width="54.0607" height="44.6065" fill="white" transform="matrix(0.985501 -0.169668 0.243578 0.969881 289 491.172)"/>
</clipPath>
<clipPath id="clip3">
<rect width="54.0607" height="44.6065" fill="white" transform="matrix(0.985501 -0.169668 0.243578 0.969881 361.858 327.192)"/>
</clipPath>
<clipPath id="clip4">
<rect width="53.0875" height="45.717" fill="white" transform="matrix(0.943129 0.332428 -0.457265 0.889331 310.556 182.436)"/>
</clipPath>
<clipPath id="clip5">
<rect width="53.0875" height="45.717" fill="white" transform="matrix(0.943129 0.332428 -0.457265 0.889331 180.905 571)"/>
</clipPath>
<clipPath id="clip6">
<rect width="61.7704" height="53.191" fill="white" transform="matrix(0.997758 0.0669234 -0.097378 0.995247 152.621 245.799)"/>
</clipPath>
<clipPath id="clip7">
<rect width="54.0607" height="44.6065" fill="white" transform="matrix(0.985501 -0.169668 0.243578 0.969881 137 844.172)"/>
</clipPath>
<clipPath id="clip8">
<rect width="61.7704" height="53.191" fill="white" transform="matrix(0.997758 0.0669234 -0.097378 0.995247 9.9314 810.928)"/>
</clipPath>
<clipPath id="clip9">
<rect width="61.6433" height="53.3494" fill="white" transform="matrix(0.993229 -0.116176 0.168195 0.985754 340 682.161)"/>
</clipPath>
<clipPath id="clip10">
<rect width="61.6433" height="53.3494" fill="white" transform="matrix(0.993229 -0.116176 0.168195 0.985754 49 923.161)"/>
</clipPath>
<clipPath id="clip11">
<rect width="54.0607" height="44.6065" fill="white" transform="matrix(0.985501 -0.169668 0.243578 0.969881 164.075 26.3273)"/>
</clipPath>
<clipPath id="clip12">
<rect width="53.0875" height="45.717" fill="white" transform="matrix(0.943129 0.332428 -0.457265 0.889331 371.929 65.4669)"/>
</clipPath>
<clipPath id="clip13">
<rect width="54.0607" height="44.6065" fill="white" transform="matrix(0.985501 -0.169668 0.243578 0.969881 102.703 143.297)"/>
</clipPath>
<clipPath id="clip14">
<rect width="54.0607" height="44.6065" fill="white" transform="matrix(0.985501 -0.169668 0.243578 0.969881 25.9409 378.76)"/>
</clipPath>
</defs>
</svg>
